<svg width="77" height="51" viewBox="0 0 77 51" fill="none" xmlns="http://www.w3.org/2000/svg">
<path d="M14.3449 45.0947V49.7632H13.68V45.6283H11.2862L10.7542 48.5628C10.6213 49.3631 10.0893 49.7632 9.42436 49.7632H9.02539V49.0963H9.42436C9.82332 49.0963 10.0893 48.9629 10.2223 48.5628L10.8872 45.0947H14.3449Z" fill="black"/>
<path d="M16.3388 45.0947V48.9629L19.7965 45.0947H20.4614V49.7632H19.7965V45.895L16.3388 49.7632H15.6738V45.0947H16.3388Z" fill="black"/>
<path d="M22.5479 46.0021H26.0476V45.229H21.792V49.8975H22.5479V46.0021Z" fill="black"/>
<path d="M29.6372 45.0947L31.632 49.7632H30.8786L30.533 48.9629H27.4223L27.0676 49.7632H26.3125L28.3073 45.0947H29.6372ZM27.6447 48.4294H30.3022L29.2383 45.6283H28.7139L27.6447 48.4294Z" fill="black"/>
<path d="M39.7449 45.0947V45.7617H36.1542V49.8966H35.4893V45.2281H39.7449V45.0947Z" fill="black"/>
<path d="M44.7984 45.0947V45.7617H41.3407V47.0955H44.5325V47.7624H41.3407V49.2297H44.9314V49.8966H40.6758V45.2281H44.7984V45.0947Z" fill="black"/>
<path d="M48.6551 45.0947C49.719 45.0947 50.5169 45.7617 50.5169 46.8287C50.5169 47.8958 49.719 48.5628 48.6551 48.5628H46.6602V49.7632H45.8623V45.0947H48.6551ZM46.6602 47.9352H48.7881C49.586 47.9352 49.8525 47.6291 49.8525 46.8287C49.8525 46.1618 49.453 45.7617 48.7881 45.7617H46.6602V47.9352Z" fill="black"/>
<path d="M54.108 50.0301C52.6451 50.0301 51.4482 49.0964 51.4482 47.4958C51.4482 46.0285 52.6451 44.9614 54.108 44.9614C55.5709 44.9614 56.7678 45.8951 56.7678 47.4958C56.7678 48.963 55.5709 50.0301 54.108 50.0301ZM54.108 49.3632C55.1719 49.3632 56.1028 48.6962 56.1028 47.4958C56.1028 46.2953 55.3049 45.6284 54.108 45.6284C53.0441 45.6284 52.1132 46.2953 52.1132 47.4958C52.1132 48.6962 53.0441 49.3632 54.108 49.3632Z" fill="black"/>
<path d="M61.9547 45.0947V45.7617H58.497V47.0955H61.6887V47.7624H58.497V49.2297H62.0877V49.8966H57.832V45.2281H61.9547V45.0947Z" fill="black"/>
<path d="M66.0761 45.229C66.8741 45.229 67.539 45.6292 67.539 46.2961C67.539 46.6962 67.406 46.963 67.1401 47.2298C67.672 47.3632 67.938 47.8967 67.938 48.4303C67.938 49.2306 67.273 49.8975 66.3421 49.8975H63.1504V45.229L66.0761 45.229ZM63.8153 47.0964H66.2091C66.6081 47.0964 66.8741 46.8296 66.8741 46.4295C66.8741 46.0293 66.5152 45.7625 66.0761 45.7625H63.8153V47.0964ZM63.8153 49.2306H66.2091C66.8741 49.2306 67.1401 48.8304 67.1401 48.4303C67.1401 47.8967 66.8741 47.6299 66.3421 47.6299H63.6823V49.2306H63.8153Z" fill="black"/>
<path d="M34.0451 37.3586L32.1833 36.8251L29.6565 34.1574L33.7791 35.2245L34.843 36.0248V34.024L26.7307 25.0871L30.4544 24.8204L6.11748 2.81174L8.77725 8.94748L0 0.944336L9.57518 17.084L13.6978 20.6854L14.8947 23.6199L11.969 20.9522L18.0865 31.2229L25.4008 33.0903L30.5874 37.7588H34.1781L34.843 39.6262V37.7588L36.5719 37.2252L34.0451 37.3586Z" fill="black"/>
<path d="M42.9557 37.3581L44.8175 36.8246L47.2113 34.1569L43.0887 35.224L42.1577 36.0243V34.0235L50.27 25.0867L46.4134 24.8199L70.7503 2.81125L68.2235 8.94699L77.0008 0.943848L67.2926 17.0835L63.3029 20.6849L61.9731 23.6194L65.0318 20.9517L58.7813 31.2224L51.5999 33.0898L46.4134 37.7583H42.8227L42.1577 39.6257V37.7583L40.2959 37.2247L42.9557 37.3581Z" fill="black"/>
<path d="M34.0451 37.3586L32.1833 36.8251L29.6565 34.1574L33.7791 35.2245L34.843 36.0248V34.024L26.7307 25.0871L30.4544 24.8204L6.11748 2.81174L8.77725 8.94748L0 0.944336L9.57518 17.084L13.6978 20.6854L14.8947 23.6199L11.969 20.9522L18.0865 31.2229L25.4008 33.0903L30.5874 37.7588H34.1781L34.843 39.6262V37.7588L36.5719 37.2252L34.0451 37.3586Z" fill="black"/>
<path d="M42.9557 37.3581L44.8175 36.8246L47.2113 34.1569L43.0887 35.224L42.1577 36.0243V34.0235L50.27 25.0867L46.4134 24.8199L70.7503 2.81125L68.2235 8.94699L77.0008 0.943848L67.2926 17.0835L63.3029 20.6849L61.9731 23.6194L65.0318 20.9517L58.7813 31.2224L51.5999 33.0898L46.4134 37.7583H42.8227L42.1577 39.6257V37.7583L40.2959 37.2247L42.9557 37.3581Z" fill="black"/>
</svg>
