<svg width="79" height="67" viewBox="0 0 79 67" fill="none" xmlns="http://www.w3.org/2000/svg">
<path d="M33.7343 12.9565V14.2715H33.532V13.1588H32.8745L32.7228 13.9681C32.6722 14.1704 32.571 14.2715 32.3687 14.2715H32.2676V14.0692H32.3687C32.4699 14.0692 32.571 14.0186 32.571 13.9175L32.7733 12.9565H33.7343Z" fill="white"/>
<path d="M34.2414 12.9556V14.0177L35.2023 12.9556H35.4046V14.2705H35.2023V13.2084L34.2414 14.2705H34.0391V12.9556H34.2414Z" fill="white"/>
<path d="M36.9201 12.9558V13.1076H35.9591V14.2202H35.7568V12.9053H36.9201V12.9558Z" fill="white"/>
<path d="M37.8826 12.9556L38.4389 14.2705H38.2366L38.1355 14.0682H37.1745L37.0734 14.2705H36.8711L37.4274 12.9556H37.8826ZM37.2757 13.9165H38.0849L37.7815 13.1579H37.5792L37.2757 13.9165Z" fill="white"/>
<path d="M40.715 12.9558V13.1076H39.7541V14.2202H39.5518V12.9053H40.715V12.9558Z" fill="white"/>
<path d="M42.1302 12.9558V13.1076H41.1693V13.5122H42.0291V13.6639H41.1693V14.0685H42.1808V14.2202H41.0176V12.9053H42.1302V12.9558Z" fill="white"/>
<path d="M43.1922 12.9556C43.4957 12.9556 43.698 13.1579 43.698 13.4613C43.698 13.7648 43.4451 13.9671 43.1922 13.9671H42.6359V14.2705H42.4336V12.9556H43.1922ZM42.5853 13.8154H43.1417C43.344 13.8154 43.4957 13.7142 43.4957 13.5119C43.4957 13.3096 43.344 13.2084 43.1417 13.2084H42.5853V13.8154Z" fill="white"/>
<path d="M44.6592 14.3208C44.2546 14.3208 43.9512 14.068 43.9512 13.6633C43.9512 13.2587 44.2546 13.0059 44.6592 13.0059C45.0638 13.0059 45.3673 13.2587 45.3673 13.6633C45.4179 14.0174 45.0638 14.3208 44.6592 14.3208ZM44.6592 14.1691C44.9627 14.1691 45.2156 13.9668 45.2156 13.6633C45.2156 13.3599 44.9627 13.1576 44.6592 13.1576C44.3558 13.1576 44.1029 13.3599 44.1029 13.6633C44.1535 13.9668 44.3558 14.1691 44.6592 14.1691Z" fill="white"/>
<path d="M46.8343 12.9558V13.1076H45.8734V13.5122H46.7332V13.6639H45.8734V14.0685H46.8849V14.2202H45.7217V12.9053H46.8343V12.9558Z" fill="white"/>
<path d="M47.9977 12.9558C48.2506 12.9558 48.4023 13.1076 48.4023 13.2593C48.4023 13.3605 48.3517 13.4616 48.3011 13.5122C48.4529 13.5628 48.5035 13.6639 48.5035 13.8156C48.5035 14.0179 48.3517 14.2202 48.0483 14.2202H47.1885V12.9053H47.9977V12.9558ZM47.3402 13.5122H47.9977C48.0988 13.5122 48.2 13.411 48.2 13.3099C48.2 13.2087 48.1494 13.1076 47.9471 13.1076H47.3402V13.5122ZM47.3402 14.1191H47.9977C48.1494 14.1191 48.2506 14.0179 48.2506 13.9168C48.2506 13.7651 48.1494 13.7145 48.0483 13.7145H47.3402V14.1191Z" fill="white"/>
<path d="M41.5743 10.8304L42.08 10.6787L42.7881 9.97063L41.6248 10.2235L41.372 10.4764V9.92005L43.5973 7.44184L42.5352 7.39126L49.2618 1.32216L48.5537 2.99117L50.9814 0.816406L48.3009 5.26708L47.1882 6.27859L46.8342 7.08781L47.6939 6.32917L45.9744 9.16142L43.9513 9.66718L42.5352 10.9316H41.5237L41.372 11.4373V10.9316L40.8662 10.8304H41.5743Z" fill="white"/>
<path d="M39.1464 10.8304L38.59 10.6787L37.9325 9.97063L39.0452 10.2235L39.3487 10.4764V9.92005L37.1233 7.44184L38.1348 7.39126L31.4588 1.32216L32.1669 2.99117L29.7393 0.816406L32.3692 5.26708L33.5324 6.27859L33.8359 7.08781L33.0267 6.32917L34.7463 9.16142L36.7187 9.66718L38.1348 10.9316H39.1464L39.3487 11.4373V10.9316L39.8544 10.8304H39.1464Z" fill="white"/>
<path d="M25.945 25.4975H24.1748V17.9111H29.4853V19.4284H25.945V25.4975Z" fill="white"/>
<path d="M36.4648 23.4238C36.4648 24.1824 36.313 24.7387 36.0096 25.0928C35.7061 25.4468 35.2004 25.5985 34.5429 25.5985H32.1152C31.4578 25.5985 30.952 25.4468 30.6485 25.0928C30.3451 24.7387 30.1934 24.1824 30.1934 23.4238V19.934C30.1934 19.1754 30.3451 18.6191 30.6485 18.265C30.952 17.911 31.4578 17.7593 32.1152 17.7593H34.5429C35.2004 17.7593 35.7061 17.911 36.0096 18.265C36.313 18.6191 36.4648 19.1754 36.4648 19.934V23.4238ZM34.6946 19.934C34.6946 19.4789 34.4923 19.2766 34.0877 19.2766H32.4187C32.0141 19.2766 31.8118 19.4789 31.8118 19.934V23.4238C31.8118 23.879 32.0141 24.0813 32.4187 24.0813H34.0877C34.4923 24.0813 34.6946 23.879 34.6946 23.4238V19.934Z" fill="white"/>
<path d="M43.2922 25.4975H41.522V22.4124H39.0944V25.4975H37.3242V17.9111H39.0944V20.8951H41.522V17.9111H43.2922V25.4975Z" fill="white"/>
<path d="M48.3505 21.6536L50.2724 25.4974H48.4011L46.8838 22.4123H46.0241V25.4974H44.2539V17.911H46.0241V20.895H46.8838L47.8448 18.8214C47.9965 18.5179 48.1482 18.265 48.4011 18.0627C48.6034 17.8604 48.9069 17.7593 49.2103 17.7593C49.3115 17.7593 49.4126 17.7593 49.5138 17.7593C49.6149 17.7593 49.7161 17.7593 49.8172 17.8099C49.9184 17.8099 50.0196 17.8604 50.0701 17.8604V19.3777H49.6655C49.5644 19.3777 49.4632 19.4283 49.4126 19.4789C49.3115 19.5294 49.2609 19.6306 49.2609 19.6812L48.3505 21.6536Z" fill="white"/>
<path d="M52.4971 25.4975H50.5752L53.1546 17.9111H55.127L57.7064 25.4975H55.7845L55.3293 24.132H52.9017L52.4971 25.4975ZM53.3569 22.7158H54.9247L54.1661 20.187L53.3569 22.7158Z" fill="white"/>
<path d="M22.9596 34.0454H21.1895V26.459H26.4999V27.9763H22.9596V34.0454Z" fill="white"/>
<path d="M32.6196 34.0454H27.208V26.459H32.6196V27.9763H28.9782V29.443H31.861V30.9602H28.9782V32.5281H32.6196V34.0454Z" fill="white"/>
<path d="M33.3789 26.459H37.4755C38.133 26.459 38.6388 26.6107 38.9422 26.9647C39.2457 27.3188 39.3974 27.8751 39.3974 28.6337V29.6958C39.3974 30.4545 39.2457 31.0108 38.9422 31.3648C38.6388 31.7189 38.133 31.8706 37.4755 31.8706H35.1491V34.0454H33.3789V26.459ZM37.6779 28.6337C37.6779 28.1786 37.4755 27.9763 37.0709 27.9763H35.0985V30.3533H37.0709C37.4755 30.3533 37.6779 30.151 37.6779 29.6958V28.6337Z" fill="white"/>
<path d="M46.4257 31.9716C46.4257 32.7303 46.274 33.2866 45.9705 33.6406C45.6671 33.9947 45.1613 34.1464 44.5038 34.1464H42.0762C41.4187 34.1464 40.9129 33.9947 40.6095 33.6406C40.306 33.2866 40.1543 32.7303 40.1543 31.9716V28.4819C40.1543 27.7233 40.306 27.1669 40.6095 26.8129C40.9129 26.4589 41.4187 26.3071 42.0762 26.3071H44.5038C45.1613 26.3071 45.6671 26.4589 45.9705 26.8129C46.274 27.1669 46.4257 27.7233 46.4257 28.4819V31.9716ZM44.7061 28.5325C44.7061 28.0773 44.5038 27.875 44.0992 27.875H42.4302C42.0256 27.875 41.8233 28.0773 41.8233 28.5325V32.0222C41.8233 32.4774 42.0256 32.6797 42.4302 32.6797H44.0992C44.5038 32.6797 44.7061 32.4774 44.7061 32.0222V28.5325Z" fill="white"/>
<path d="M52.6987 34.0454H47.2871V26.459H52.6987V27.9763H49.0573V29.443H51.9401V30.9602H49.0573V32.5281H52.6987V34.0454Z" fill="white"/>
<path d="M53.4568 26.459H57.3512C58.0087 26.459 58.4638 26.6107 58.7673 26.9647C59.0707 27.2682 59.2225 27.774 59.2225 28.4314C59.2225 28.8866 59.1213 29.2407 58.9696 29.4935C58.8179 29.7464 58.6156 29.9487 58.3627 30.0499C58.5144 30.1004 58.6661 30.151 58.7673 30.2522C58.919 30.3533 59.0202 30.4545 59.1213 30.6568C59.2225 30.8085 59.3236 31.0108 59.3742 31.2131C59.4248 31.466 59.4753 31.7189 59.4753 32.0223C59.4753 32.7304 59.3236 33.2361 59.0202 33.5902C58.7167 33.9442 58.2615 34.0959 57.604 34.0959H53.4062V26.459H53.4568ZM57.4523 28.6337C57.4523 28.1786 57.25 27.9763 56.8454 27.9763H55.1764V29.4935H56.8454C57.25 29.4935 57.4523 29.2912 57.4523 28.836V28.6337ZM57.7558 31.6683C57.7558 31.2131 57.5535 31.0108 57.1489 31.0108H55.1764V32.5281H57.1489C57.5535 32.5281 57.7558 32.3258 57.7558 31.8706V31.6683Z" fill="white"/>
<path d="M78.9999 66.363C78.9999 66.363 78.9999 66.4135 78.9493 66.4641L78.8988 66.5147C78.8482 66.5147 78.8482 66.5147 78.7976 66.5147C78.7976 66.5147 78.7976 66.5147 78.747 66.5147C76.37 66.1101 73.9929 65.7055 71.6664 65.3514C71.6664 65.3514 71.6158 65.3514 71.6158 65.3009C71.6158 65.3009 71.6158 65.2503 71.5653 65.2503C71.5653 65.1997 71.5653 65.1997 71.5653 65.1491V65.0986V65.048V64.9974V64.9468C71.5653 64.8963 71.5653 64.7951 71.5653 64.7445C71.5653 64.694 71.5653 64.6434 71.6158 64.5928C71.6664 64.5422 71.6664 64.4917 71.717 64.4411C71.7676 64.3905 71.8181 64.3399 71.9193 64.3399C72.0204 64.2893 72.1216 64.2388 72.2227 64.1376C72.3239 64.0365 72.3745 63.9353 72.4251 63.8342C72.4756 63.733 72.5262 63.6319 72.5262 63.4801C72.5768 63.379 72.5768 63.2273 72.5768 63.1261C72.5768 63.0755 72.5768 63.025 72.5768 62.9238C72.5768 62.8227 72.5768 62.7721 72.5768 62.7215C72.4756 59.1306 72.3745 55.5903 72.2733 51.9994C72.2733 51.9488 72.2733 51.8477 72.2733 51.8477C72.2733 51.7971 72.2733 51.7971 72.2227 51.7465C72.1722 51.696 72.1216 51.696 72.1216 51.696C70.5537 51.696 68.9859 51.6454 67.418 51.6454C67.418 51.6454 67.418 51.6454 67.3675 51.696C67.3675 51.696 67.3675 51.696 67.3675 51.7465C67.3675 51.7465 67.3675 51.7971 67.3675 51.8477C67.3675 51.8983 67.3675 51.9488 67.3675 51.9488C67.4686 55.388 67.5698 58.8272 67.6709 62.2663C67.6709 62.3675 67.6709 62.5192 67.7215 62.6203C67.7215 62.7215 67.7721 62.8226 67.8226 62.9744C67.8732 63.0755 67.9238 63.2273 67.9744 63.3284C68.025 63.4296 68.0755 63.4801 68.1261 63.5813C68.1767 63.6824 68.2273 63.733 68.2778 63.7836C68.3284 63.8342 68.4296 63.9353 68.4801 63.9859C68.5307 64.0365 68.6319 64.087 68.733 64.1376C68.7836 64.1376 68.7836 64.1376 68.7836 64.1882L68.8342 64.2388V64.2893V64.3399C68.8342 64.3905 68.8342 64.4411 68.8342 64.4411V64.5422V64.6434C68.8342 64.694 68.8342 64.7445 68.8342 64.7445C68.8342 64.7951 68.8342 64.8457 68.8342 64.8963C68.8342 64.9468 68.8342 64.9468 68.7836 64.9974L68.733 65.048C68.6824 65.048 68.6824 65.048 68.6319 65.048C66.2548 64.7445 63.8777 64.4917 61.5512 64.1882C61.5512 64.1882 61.5007 64.1882 61.5007 64.1376L61.4501 64.087C61.4501 64.0365 61.4501 64.0365 61.4501 63.9859V63.9353V63.8847V63.8342V63.7836C61.4501 63.733 61.4501 63.6319 61.4501 63.5813C61.4501 63.5307 61.4501 63.4801 61.5007 63.4296C61.5007 63.379 61.5512 63.3284 61.6018 63.2778C61.6524 63.2273 61.703 63.2273 61.8041 63.1767C61.9053 63.1767 61.9559 63.1261 62.0064 63.0755C62.057 63.0249 62.1076 62.9744 62.1582 62.9238C62.2087 62.8732 62.2593 62.7721 62.2593 62.7215C62.3099 62.6203 62.3099 62.5698 62.3605 62.4686C62.411 62.3675 62.411 62.2663 62.411 62.2157C62.411 62.1146 62.4616 62.0134 62.4616 61.9629C62.4616 61.9629 62.4616 61.8111 62.4616 61.71C62.4616 61.5077 62.3605 57.0064 62.1582 50.8868C62.1076 50.6845 62.057 50.5327 62.0064 50.4316C61.9559 50.381 61.9558 50.3304 61.9558 50.3304C61.9053 50.2293 61.8041 50.1281 61.7535 50.027C61.6524 49.8752 61.5007 49.7741 61.3489 49.6729C61.2984 49.6224 61.2478 49.6224 61.2478 49.5718C61.2478 49.5212 61.1972 49.4706 61.1972 49.4706C61.1972 49.4706 61.1972 49.3695 61.2478 49.3695C61.2478 49.3189 61.2984 49.3189 61.3489 49.2683C61.5007 49.1672 61.6524 49.0154 61.7535 48.8637C61.8041 48.8131 61.8041 48.7626 61.8547 48.712C61.8547 48.6614 61.9559 48.5603 62.0064 48.4085C62.057 48.3074 62.1076 48.1051 62.1582 47.9028C62.057 44.2107 61.9559 40.5693 61.8547 36.8772C61.8041 36.7761 61.8041 36.7255 61.7535 36.6749C61.7535 36.6244 61.703 36.6244 61.6524 36.5232C61.6018 36.4726 61.6018 36.4221 61.5512 36.4221C61.5007 36.3715 61.4501 36.3715 61.4501 36.3209C61.3995 36.2703 61.3489 36.2703 61.2984 36.2198C61.2478 36.2198 61.2478 36.2198 61.1972 36.1692C61.1466 36.1692 61.1466 36.1692 61.0961 36.1692C61.0455 36.1692 61.0455 36.1692 60.9949 36.1186C60.9443 36.068 60.9443 36.068 60.9443 36.0175C60.9443 35.9669 60.9443 35.9163 60.9443 35.8657C60.9443 35.8152 60.9443 35.7646 60.9443 35.714C60.9443 35.6634 60.9443 35.6129 60.9443 35.5623C60.9443 35.5117 60.9443 35.4611 60.9443 35.4105C60.9443 35.4105 60.9443 35.36 60.9949 35.36C60.9949 35.36 61.0455 35.36 61.0455 35.3094H61.0961H61.1466C66.6594 34.6013 72.1722 33.7921 77.6849 32.9829H77.7355C77.7861 32.9829 77.7861 32.9829 77.8367 32.9829C77.8367 32.9829 77.8872 32.9829 77.8872 33.0335V33.0841C77.8872 33.1346 77.8872 33.1346 77.8872 33.1852C77.8872 33.1852 77.8872 33.1852 77.8872 33.2358C77.8872 33.2358 77.8872 33.2358 77.8872 33.2864C77.8872 33.2864 77.8872 33.2864 77.8872 33.3369C77.8872 33.3369 77.8872 33.3369 77.8872 33.3875C77.8872 33.4887 77.8872 33.5392 77.8872 33.6404C77.8872 33.691 77.8872 33.7921 77.8367 33.8427C77.8367 33.8933 77.7861 33.9944 77.7355 34.045C77.6849 34.0956 77.6344 34.1462 77.5332 34.2473C77.3815 34.3485 77.2803 34.4496 77.2298 34.5508C77.1286 34.7025 77.078 34.8542 77.0274 34.9554C76.9769 35.0565 76.9769 35.2082 76.9263 35.4105C77.1286 41.9854 77.2298 46.7395 77.2298 47.0936C77.2298 47.1441 77.2297 47.2959 77.2803 47.5487C77.2803 47.7005 77.3309 47.8522 77.3815 48.0039C77.4321 48.1557 77.4826 48.3074 77.5332 48.4085C77.5838 48.5603 77.6849 48.6614 77.7861 48.8131C77.8367 48.8637 77.8367 48.9143 77.8872 48.9649C77.9378 49.0154 77.9378 49.066 77.9884 49.066C78.039 49.066 78.0895 49.1672 78.0895 49.1672C78.1401 49.2178 78.1907 49.2177 78.1907 49.2683C78.2413 49.3189 78.2918 49.3695 78.2918 49.3695L78.3424 49.4706C78.3424 49.5212 78.3424 49.5718 78.2918 49.5718C78.2413 49.5718 78.2413 49.6729 78.1907 49.6729C78.039 49.7741 77.9378 49.9258 77.8367 50.027C77.7355 50.1787 77.6344 50.2798 77.5838 50.4316C77.5332 50.5833 77.4826 50.735 77.4321 50.8868C77.3815 51.0385 77.3815 51.1902 77.3815 51.3925C77.3815 51.4431 77.3815 51.4431 77.3815 51.4937C77.3815 51.4937 77.3815 51.5442 77.3815 51.5948C77.3815 51.6454 77.5332 56.703 77.7861 63.6319C77.7861 63.733 77.7861 63.8847 77.8367 64.0365C77.8367 64.1376 77.8872 64.2894 77.9378 64.4411C77.9884 64.5928 78.039 64.694 78.0895 64.8457C78.1401 64.9468 78.1907 65.048 78.2413 65.1491C78.2918 65.2503 78.3424 65.3514 78.393 65.402C78.4436 65.5032 78.5447 65.5537 78.5953 65.6043C78.6965 65.6549 78.747 65.756 78.8482 65.8066L78.8988 65.8572L78.9493 65.9078C78.9493 65.9078 78.9493 65.9584 78.9999 65.9584C78.9999 65.9584 78.9999 66.0089 78.9999 66.0595C78.9999 66.1607 78.9999 66.1607 78.9999 66.2112C78.9493 65.9584 78.9999 66.2112 78.9999 66.363ZM71.9193 38.2428C71.9193 38.1922 71.9193 38.1922 71.9193 38.1416C71.9193 38.0911 71.9193 38.0911 71.9193 38.0911L71.8687 38.0405C71.8687 38.0405 71.8181 38.0405 71.7676 38.0405C71.7676 38.0405 69.0365 38.3439 67.2663 38.5463C67.2663 38.5463 67.2157 38.5463 67.1652 38.5968C67.1146 38.6474 67.1146 38.6474 67.1146 38.698C67.1146 38.7486 67.1146 38.7991 67.1146 38.8497C67.1652 41.3785 67.2157 43.9073 67.2663 46.4361C67.2663 46.4867 67.2663 46.5372 67.2663 46.5878C67.2663 46.6384 67.2663 46.6384 67.3169 46.689C67.3169 46.689 67.3675 46.7395 67.418 46.7395C67.6203 46.7901 71.9699 46.6384 71.9699 46.6384C72.071 46.6384 72.1216 46.5372 72.1722 46.4867C72.1722 46.4361 72.1722 46.4361 72.1722 46.3855" fill="#EF8A52"/>
<path d="M59.4254 40.9233C59.476 40.9233 59.476 40.9233 59.5265 40.9233C59.5265 40.9233 59.5771 40.9233 59.5771 40.9739V41.0245V41.0751C59.5771 41.1256 59.5771 41.1762 59.5771 41.2268C59.5771 41.2774 59.5771 41.3279 59.5771 41.3785C59.5771 41.4291 59.5771 41.4797 59.5771 41.5303C59.5771 41.5808 59.5771 41.6314 59.5771 41.682V41.7326V41.7831C59.5771 41.7831 59.5771 41.8337 59.5265 41.8337C59.5265 41.8337 59.476 41.8337 59.476 41.8843C59.3242 41.9349 59.1725 42.036 59.0208 42.1372C58.9702 42.1877 58.9702 42.1877 58.9196 42.2383C58.9196 42.2889 58.8185 42.3395 58.7173 42.4912C58.6162 42.6429 58.5656 42.7946 58.5656 42.9464C58.5656 45.1211 58.5656 47.3465 58.6162 49.5212C58.6668 49.6224 58.7173 49.7741 58.7679 49.9764C58.8185 50.0776 58.9196 50.2293 59.0208 50.381C59.1219 50.4822 59.2737 50.6339 59.4254 50.735C59.476 50.7856 59.476 50.7856 59.5265 50.8362C59.5265 50.8868 59.5771 50.8868 59.5771 50.9374C59.5771 50.9879 59.5771 50.9879 59.5265 51.0385C59.476 51.0891 59.476 51.0891 59.4254 51.1397C59.2737 51.2408 59.1219 51.3925 59.0208 51.4937C58.9702 51.5443 58.9196 51.6454 58.9196 51.6454C58.8691 51.7466 58.8185 51.8477 58.7679 51.8983C58.8185 54.4271 58.8691 57.0064 58.9196 59.5352C58.9702 59.687 59.0208 59.7881 59.0714 59.8387C59.1219 59.9398 59.1725 59.9904 59.1725 60.041C59.2231 60.0916 59.2737 60.1421 59.3242 60.1927C59.3748 60.2433 59.4254 60.2939 59.476 60.3445C59.5265 60.395 59.5771 60.395 59.6783 60.4456C59.7288 60.4456 59.7794 60.4962 59.7794 60.4962C59.83 60.4962 59.83 60.5468 59.83 60.5468C59.83 60.5973 59.83 60.5973 59.8806 60.6479C59.9311 60.6985 59.8806 60.6985 59.8806 60.7491C59.8806 60.8502 59.8806 60.9514 59.8806 61.0525C59.8806 61.1537 59.8806 61.2042 59.83 61.2548C59.83 61.3054 59.7794 61.3054 59.7288 61.356C59.7288 61.356 59.6783 61.356 59.5771 61.356H59.5265C55.531 61.1537 52.8 61.0019 52.6988 61.0019C52.6988 61.0019 52.6482 61.0019 52.5977 61.0019C52.5471 61.0019 52.5471 61.0019 52.5471 60.9514L52.4965 60.9008C52.4965 60.8502 52.4965 60.8502 52.4965 60.7996V60.7491V60.6985V60.6479V60.5973C52.4965 60.5468 52.4965 60.4962 52.4965 60.4456C52.4965 60.395 52.4965 60.3445 52.5471 60.2939C52.5471 60.2433 52.5977 60.2433 52.6482 60.1927C52.6988 60.1421 52.7494 60.1422 52.8 60.0916C52.9517 60.041 53.0528 59.9398 53.154 59.8387C53.2551 59.7375 53.3563 59.5858 53.4069 59.4847C53.508 59.3329 53.508 59.1812 53.508 59.0801C53.4574 53.719 53.4069 50.2293 53.4069 50.1787V50.1281V50.0776V50.027C53.4069 50.027 53.4069 49.9764 53.3563 49.9764C51.5861 52.3029 50.2712 54.0225 50.2712 54.0731C50.2712 54.0731 50.2712 54.1236 50.2206 54.1236L50.17 54.1742C50.17 54.1742 50.17 54.1742 50.1194 54.1742C50.1194 54.1742 50.1194 54.1742 50.0689 54.1742C50.0183 54.1742 50.0183 54.1742 49.9677 54.1742C49.2091 54.1742 48.6527 54.1236 48.6022 54.1236C48.6022 54.1236 48.5516 54.1236 48.501 54.1236C48.4504 54.1236 48.4504 54.1236 48.3999 54.0731L48.3493 54.0225C48.2987 53.9719 48.2987 53.9719 48.2987 53.9719C48.1976 53.8202 45.2642 50.1787 45.2642 50.1281V50.0776C45.2642 50.0776 45.2642 50.0776 45.2642 50.027C45.2642 49.9764 45.2642 50.027 45.2136 49.9764C45.2136 49.9764 45.2136 49.9764 45.2136 49.9258C45.2136 49.9764 45.163 49.9764 45.163 50.027C45.163 50.0776 45.163 50.0776 45.163 50.1281V50.1787C45.163 50.2293 45.163 50.2293 45.163 50.2293C45.163 50.2799 45.163 58.4226 45.3147 58.9789C45.3653 59.1306 45.4159 59.2824 45.4159 59.2824C45.4665 59.3329 45.517 59.4341 45.517 59.4847C45.5676 59.5352 45.6182 59.5858 45.6688 59.6364C45.7193 59.687 45.7699 59.7375 45.8711 59.7881C45.9722 59.8387 46.0228 59.8387 46.0734 59.8893C46.1239 59.8893 46.1745 59.9398 46.1745 59.9398C46.2251 59.9398 46.2251 59.9904 46.2251 59.9904C46.2251 59.9904 46.2757 60.041 46.2757 60.0916C46.2757 60.1422 46.2757 60.1421 46.2757 60.1927C46.2757 60.3445 46.2757 60.4456 46.2757 60.4962C46.2757 60.5973 46.2757 60.5973 46.2251 60.6479C46.1745 60.6985 46.0734 60.6985 46.0734 60.6985C41.9767 60.6479 39.1445 60.6479 39.0939 60.6479C39.0939 60.6479 39.0433 60.6479 38.9928 60.6479C38.9422 60.6479 38.9422 60.6479 38.9422 60.5973L38.8916 60.5468C38.8916 60.4962 38.8916 60.4962 38.8916 60.4456V60.395V60.3445V60.2939V60.2433C38.8916 60.1927 38.8916 60.1422 38.8916 60.0916C38.8916 60.041 38.8916 59.9904 38.9422 59.9398C38.9422 59.8893 38.9928 59.8893 39.0433 59.8387C39.0939 59.7881 39.1445 59.7881 39.1951 59.7375C39.3468 59.687 39.4479 59.5858 39.5491 59.5352C39.6502 59.4341 39.7514 59.3329 39.802 59.2318C39.9031 59.0801 39.9031 58.9789 39.9537 58.8778C40.0548 55.2869 40.0548 52.6569 40.0043 52.3535C39.9537 52.1006 39.8525 51.8477 39.8525 51.8477C39.802 51.696 39.7008 51.5443 39.5997 51.4431C39.4985 51.2914 39.3468 51.1902 39.1951 51.0891C39.1445 51.0385 39.0939 51.0385 39.0939 50.9879C39.0939 50.9374 39.0433 50.9374 39.0433 50.8868C39.0433 50.8362 39.0433 50.8362 39.0939 50.7856C39.0939 50.735 39.1445 50.7351 39.1951 50.6845C39.3468 50.5833 39.4985 50.4316 39.5997 50.3304C39.6502 50.2293 39.7008 50.1787 39.7514 50.1281C39.802 50.027 39.8525 49.9764 39.9031 49.8753C40.0043 46.0821 40.0043 43.351 39.9537 43.1487C39.9031 42.9969 39.8525 42.8958 39.8525 42.8958C39.802 42.7946 39.7514 42.7441 39.7008 42.6935C39.6502 42.6429 39.5491 42.5923 39.4985 42.5418C39.3974 42.4912 39.3468 42.4406 39.2456 42.4406C39.1951 42.4406 39.1445 42.4406 39.1445 42.39C39.0939 42.39 39.0939 42.3395 39.0939 42.3395C39.0939 42.3395 39.0433 42.2889 39.0433 42.2383C39.0433 42.1877 39.0433 42.1877 39.0433 42.1372C39.0433 41.9854 39.0433 41.8843 39.0433 41.8337C39.0433 41.7326 39.0433 41.7326 39.0939 41.682C39.1445 41.6314 39.2456 41.6314 39.2456 41.6314C41.5215 41.5808 43.7975 41.5303 46.0228 41.5303C46.0228 41.5303 46.1239 41.5303 46.1745 41.5303C46.2251 41.5303 46.2251 41.5303 46.2251 41.5808C46.2251 41.5808 46.2251 41.6314 46.2757 41.682C46.2757 41.7326 46.2757 41.7831 46.2757 41.8843C46.2757 41.9349 46.2757 41.9854 46.2757 42.036C46.2757 42.0866 46.2757 42.1372 46.2251 42.1877C46.2251 42.2383 46.1745 42.2889 46.1239 42.2889C46.0734 42.2889 46.0228 42.3395 45.9722 42.39C45.8205 42.4406 45.7193 42.5418 45.6182 42.6935C45.517 42.8452 45.4665 42.9969 45.4159 43.0981C45.3653 43.3004 45.3653 43.4521 45.4159 43.5533C47.5906 46.4361 49.1585 48.5097 49.2091 48.5603L49.2596 48.6109L49.3102 48.6614C49.3102 48.6614 49.3608 48.6614 49.3608 48.712H49.4114H49.4619H49.5125C49.5125 48.712 49.5631 48.712 49.5631 48.6614L49.6137 48.6109C51.7884 45.728 53.3057 43.5533 53.3563 43.4016C53.3563 43.3004 53.3563 43.1487 53.3563 43.1487C53.3563 43.0981 53.3563 43.0475 53.3057 42.9464C53.2551 42.7946 53.2046 42.6935 53.1034 42.5418C53.0528 42.4912 53.0528 42.4406 53.0023 42.39C52.9517 42.3395 52.9517 42.2889 52.9011 42.2889C52.8505 42.2383 52.8 42.2383 52.7494 42.1877C52.6988 42.1372 52.6482 42.1372 52.5977 42.1372C52.5471 42.1372 52.5471 42.1372 52.5471 42.0866C52.5471 42.0866 52.4965 42.0866 52.4965 42.036V41.9854V41.9349C52.4965 41.7831 52.4965 41.682 52.4965 41.5808C52.4965 41.4797 52.4965 41.4291 52.5471 41.3785C52.5977 41.3279 52.6988 41.2774 52.7494 41.2774C54.823 41.1256 57.0989 41.0245 59.4254 40.9233Z" fill="#EF8A52"/>
<path d="M26.805 41.2264C26.805 41.2264 26.9061 41.2264 26.9567 41.2264C27.0073 41.2264 27.0578 41.277 27.0578 41.277C27.1084 41.3275 27.1084 41.3781 27.1084 41.3781C27.1084 41.4287 27.1084 41.4793 27.1084 41.5298V41.5804V41.631V41.6816V41.7321C27.1084 41.7827 27.1084 41.7827 27.1084 41.7827V41.8333L27.0578 41.8839C27.0578 41.8839 27.0073 41.8839 26.9567 41.9344C26.805 41.985 26.7038 42.0356 26.6027 42.0862C26.5015 42.1367 26.4004 42.2379 26.3498 42.3391C26.2992 42.4402 26.2486 42.5414 26.1981 42.6425C26.1981 42.6425 26.1475 42.8448 26.0969 42.9965C25.9452 43.7552 25.9958 51.8473 25.9958 51.8473C25.9958 51.8473 25.9958 51.8473 25.9958 51.8979C25.9958 51.8979 25.9958 51.8979 25.9958 51.9485V51.999V52.0496C27.513 49.1162 28.9797 46.1322 30.497 43.1988C30.497 43.0977 30.497 42.9965 30.497 42.946C30.497 42.7942 30.497 42.6931 30.4464 42.6425C30.4464 42.5919 30.3959 42.4908 30.3959 42.4402C30.3453 42.3896 30.3453 42.3391 30.2947 42.2885C30.2441 42.2379 30.1935 42.1873 30.143 42.1367C30.0924 42.0862 30.0418 42.0356 29.9407 42.0356C29.8901 42.0356 29.8901 41.985 29.8395 41.985C29.7889 41.985 29.7889 41.9344 29.7889 41.9344C29.7889 41.9344 29.7889 41.8839 29.7384 41.8839C29.7384 41.8333 29.7384 41.8333 29.7384 41.7827C29.7384 41.6816 29.7384 41.5804 29.7384 41.4793C29.7384 41.3781 29.7384 41.3275 29.7889 41.3275C29.8395 41.3275 29.8395 41.277 29.8901 41.2264C29.9407 41.2264 29.9912 41.2264 30.0924 41.2264H30.143H30.1935C30.2441 41.2264 30.2441 41.2264 30.2441 41.2264C36.5155 41.3781 36.7178 41.3275 36.7178 41.3275C36.7178 41.3275 36.7684 41.3275 36.8696 41.3275C36.9201 41.3275 36.9707 41.3781 36.9707 41.3781C36.9707 41.3781 37.0213 41.4287 37.0213 41.4793C37.0213 41.5298 37.0213 41.5804 37.0213 41.631V41.6816V41.7321V41.7827V41.8333C37.0213 41.8839 37.0213 41.9344 37.0213 41.985C37.0213 42.0356 37.0213 42.0356 36.9707 42.0862C36.9707 42.1367 36.9201 42.1367 36.8696 42.1873C36.819 42.1873 36.7684 42.2379 36.7178 42.2379C36.5661 42.2885 36.465 42.3896 36.3638 42.4908C36.2626 42.5919 36.1615 42.6931 36.1109 42.7942C36.1109 42.7942 36.0098 42.9965 35.9592 43.1988C35.7569 44.1092 35.9086 48.9139 35.9086 49.1162C35.9086 49.1668 35.9086 49.3185 35.9592 49.5208C36.0098 49.622 36.0603 49.7737 36.1109 49.8748C36.1615 49.976 36.2626 50.0772 36.3638 50.1783C36.465 50.2795 36.5661 50.3806 36.6673 50.4312C36.7684 50.4818 36.819 50.5323 36.819 50.5829C36.8696 50.6335 36.8696 50.6841 36.8696 50.6841C36.8696 50.7346 36.8696 50.7346 36.819 50.7852C36.7684 50.8358 36.7178 50.8864 36.6673 50.9369C36.5155 51.0381 36.4144 51.1392 36.3132 51.2404C36.2626 51.3415 36.1615 51.4427 36.1109 51.4933C36.1109 51.4933 36.0603 51.5438 36.0603 51.5944C36.0603 51.5944 36.0098 51.7462 35.9592 51.8979C35.9086 52.0496 35.9086 54.7807 35.9086 58.5233C35.9086 58.6245 35.9592 58.7256 35.9592 58.7762C36.0098 58.9279 36.0603 59.0291 36.0603 59.0291C36.1109 59.0796 36.1615 59.1808 36.1615 59.2314C36.2121 59.282 36.2626 59.3325 36.3132 59.3831C36.3638 59.4337 36.4144 59.4842 36.5155 59.5348C36.5661 59.5854 36.6673 59.5854 36.7178 59.636C36.7684 59.636 36.7684 59.636 36.819 59.6866C36.819 59.6866 36.8696 59.6866 36.8696 59.7371C36.8696 59.7371 36.8696 59.99 36.8696 60.344C36.8696 60.344 36.8696 60.3946 36.819 60.3946L36.7684 60.4452C36.7178 60.4452 36.7178 60.4452 36.6673 60.4452C34.2902 60.4958 31.9637 60.5463 29.5866 60.5969C29.5866 60.5969 29.5866 60.5969 29.5361 60.5969C29.5361 60.5969 29.5361 60.5969 29.5361 60.5463C29.5361 60.5463 29.5361 60.2429 29.5361 59.8889C29.5361 59.8889 29.5361 59.8889 29.5361 59.8383C29.5361 59.8383 29.5361 59.8383 29.5866 59.7877C29.6372 59.7371 29.5866 59.7877 29.6372 59.7877H29.6878C29.8901 59.7371 29.9912 59.636 30.143 59.5348C30.1935 59.4842 30.2441 59.4843 30.2441 59.4337C30.3453 59.3325 30.3959 59.2314 30.4464 59.1808C30.5476 59.0291 30.5982 58.8268 30.5982 58.7256C30.7499 53.6175 30.8005 49.976 30.8005 49.976C30.8005 49.976 30.8005 49.976 30.8005 49.9254V49.8748V49.8243C30.8005 49.8243 30.8005 49.7737 30.7499 49.7737C30.6993 49.8243 30.6993 49.8748 30.6487 49.9254C30.5982 49.976 30.5982 50.0266 30.5476 50.0771C30.497 50.1277 30.497 50.1783 30.4464 50.2289C30.3959 50.2795 30.3959 50.33 30.3453 50.3806C29.8395 51.3415 29.5866 51.7967 29.3843 52.2519C29.0303 52.9094 26.3498 57.9164 26.1475 58.4727C26.0969 58.6245 26.0463 58.8268 26.0463 58.8268C26.0463 58.9279 25.9958 59.0796 26.0463 59.1808C26.0463 59.2819 26.0463 59.3831 26.0969 59.4337C26.0969 59.5348 26.1475 59.5854 26.1981 59.6866C26.2486 59.7371 26.2992 59.8383 26.3498 59.8889C26.4004 59.9394 26.5015 59.99 26.6027 60.0406C26.6532 60.0406 26.6532 60.0406 26.6532 60.0912C26.6532 60.1417 26.7038 60.1417 26.7038 60.1417V60.1923V60.2429C26.7038 60.3946 26.7038 60.5463 26.7038 60.6475C26.7038 60.7487 26.7038 60.7992 26.6532 60.8498C26.6027 60.9004 26.5015 60.9004 26.5015 60.9004C21.6462 61.1533 19.5221 61.2544 19.5221 61.2544H19.4715H19.4209V61.2038C19.4209 61.1533 19.4209 61.1027 19.4209 61.0015C19.4209 60.951 19.4209 60.9004 19.4209 60.8498C19.4209 60.6475 19.4209 60.5463 19.4715 60.4958C19.4715 60.4958 19.5221 60.4452 19.6232 60.4452C19.6738 60.4452 20.0278 60.4452 20.3313 60.1417C20.483 59.99 20.5336 59.8383 20.5336 59.7371C20.5841 57.2083 20.6347 54.7301 20.6853 52.2013C20.6853 52.1002 20.6347 51.8979 20.5336 51.7462C20.4324 51.4933 20.2807 51.3921 20.2807 51.3415C20.1795 51.1898 20.0784 51.0887 19.9267 50.9875C19.8761 50.9369 19.8255 50.8864 19.7749 50.8864C19.7244 50.8358 19.7244 50.8358 19.7244 50.7852C19.7244 50.7346 19.7244 50.7346 19.7749 50.6841C19.8255 50.6335 19.8255 50.5829 19.9267 50.5829C20.0278 50.4818 20.1795 50.3806 20.2807 50.2795C20.3818 50.1783 20.483 50.0772 20.5336 49.9254C20.6347 49.7231 20.6853 49.5714 20.6853 49.5208C20.7359 49.3691 20.7359 49.2174 20.7359 49.0656C20.7864 45.5253 20.7864 42.946 20.7359 42.6425C20.6853 42.4402 20.5841 42.2379 20.5841 42.2379C20.5336 42.0862 20.4324 41.985 20.2807 41.8839C20.1795 41.7827 20.0278 41.6816 19.8255 41.631C19.8255 41.631 19.7749 41.631 19.7749 41.5804C19.7749 41.5298 19.7749 41.5804 19.7244 41.5298V41.4793V41.4287C19.7244 41.277 19.7244 41.1758 19.7244 41.0747C19.7244 40.9735 19.7244 40.9229 19.7749 40.8724L19.8255 40.8218C23.9221 41.0747 26.6532 41.2264 26.805 41.2264Z" fill="#EF8A52"/>
<path d="M1.11267 33.1348C12.4417 34.7532 17.6004 35.4613 17.7015 35.4613C17.7521 35.4613 17.8027 35.4613 17.9544 35.5118C18.005 35.5118 18.0556 35.5624 18.0556 35.5624C18.1061 35.613 18.1061 35.613 18.1061 35.6636C18.1061 35.7141 18.1061 35.8153 18.1061 35.9164V35.967V36.0176V36.0682V36.1187C18.1061 36.1693 18.1061 36.1693 18.1061 36.2199C18.1061 36.2705 18.1061 36.2705 18.0556 36.2705L18.005 36.321C17.9544 36.321 17.9544 36.3716 17.9038 36.3716C17.8027 36.4222 17.7015 36.4222 17.651 36.4728C17.6004 36.5233 17.5498 36.5739 17.4487 36.6245C17.4487 36.6245 17.2969 36.7257 17.2464 36.8268C17.0946 36.9785 16.9429 41.6315 16.8923 48.0041C15.982 48.5098 15.1222 48.965 14.2118 49.4708C15.0716 50.0271 15.9314 50.5834 16.7406 51.1398C16.6394 57.664 16.5889 62.4688 16.6394 62.6711C16.69 62.8228 16.7406 62.9239 16.7406 62.9239C16.7912 63.0251 16.8417 63.0757 16.8923 63.1768C16.9429 63.2274 17.0441 63.3285 17.0946 63.3285C17.1958 63.3791 17.2969 63.4297 17.3981 63.4297C17.4487 63.4297 17.4487 63.4297 17.4992 63.4803C17.5498 63.5308 17.5498 63.4803 17.5498 63.5308C17.5498 63.5308 17.5498 63.5814 17.6004 63.5814C17.651 63.5814 17.6004 63.632 17.6004 63.6826C17.6004 63.8343 17.651 63.9354 17.6004 64.0872C17.6004 64.1378 17.5498 64.1883 17.5498 64.2895C11.683 65.1493 5.8668 66.0091 0 66.9194C0 66.8183 0 66.7677 0 66.6665V66.4137V66.1608C0 66.0596 0 66.0091 0 65.9079C0.101152 65.8573 0.252879 65.8068 0.303455 65.7562C0.404606 65.7056 0.505758 65.6045 0.556334 65.5033C0.657486 65.4021 0.708061 65.301 0.758637 65.1998C0.809213 65.0987 0.859789 64.9975 0.910365 64.8458C0.96094 64.6941 1.01152 64.5929 1.01152 64.4412C1.06209 64.2895 1.06209 64.1883 1.06209 64.0366C1.11267 63.8343 1.11267 63.6826 1.11267 63.632C1.16324 62.8228 1.36555 57.3606 1.31497 57.1583C1.31497 57.1583 1.31497 57.1077 1.31497 57.0571C1.31497 57.0066 1.31497 57.0066 1.31497 56.956C1.31497 56.9054 1.36555 56.9054 1.36555 56.9054C1.41612 56.9054 1.41612 56.8548 1.51727 56.8548C1.61843 56.8548 5.61392 56.5008 6.2714 56.5514H6.32198C6.37255 56.5514 6.37255 56.5514 6.42313 56.602C6.42313 56.602 6.47371 56.6525 6.47371 56.7031C6.47371 56.7031 6.47371 56.7537 6.47371 56.8043C6.42313 59.1813 6.32198 60.8503 6.32198 60.9515C6.32198 61.0021 6.32198 61.002 6.32198 61.0526C6.32198 61.1032 6.32198 61.1032 6.32198 61.1538H6.37255C7.9404 61.0021 9.55883 60.7998 11.1267 60.648C11.1267 60.648 11.1773 60.648 11.2278 60.5974C11.2278 60.5974 11.2278 60.5469 11.2784 60.5469C11.2784 60.4963 11.2784 60.4457 11.2784 60.4457C11.329 58.0181 11.4301 55.5399 11.4807 53.1122C11.4807 52.9605 11.4807 52.8593 11.4807 52.7582C11.4807 52.7076 11.4301 52.5559 11.3796 52.4547C11.329 52.3536 11.2784 52.2524 11.1773 52.2019C11.0761 52.1007 10.975 52.0501 10.8738 51.9996C10.8232 51.9996 10.7726 51.949 10.7221 51.949C10.6715 51.949 10.6209 51.8984 10.5703 51.8984C8.74962 51.949 7.48522 51.9996 7.38407 51.9996C7.33349 51.9996 7.28292 51.9996 7.23234 51.9996C7.18177 51.9996 7.18177 51.9996 7.18177 51.949C7.18177 51.8984 7.18177 51.8984 7.18177 51.8984C7.23234 49.319 7.23234 47.4477 7.23234 47.3466C7.23234 47.3466 7.23234 47.296 7.23234 47.1948C7.23234 47.1443 7.28292 47.1443 7.28292 47.0937C7.33349 47.0937 7.33349 47.0431 7.38407 47.0431C7.43465 47.0431 7.43465 47.0431 7.48522 47.0431C8.64847 47.0431 9.81171 46.9925 10.975 46.9925C11.0761 46.942 11.1773 46.8914 11.329 46.7902C11.4807 46.6891 11.5313 46.5374 11.5819 46.4868C11.7336 42.289 11.8347 39.305 11.8853 39.2039C11.8853 39.2039 11.8853 39.1533 11.8853 39.1027C11.8853 39.0521 11.8853 39.0521 11.8347 39.0016C11.8347 38.951 11.7842 38.951 11.7842 38.951C11.7336 38.951 11.683 38.9004 11.6324 38.951C8.69904 38.6475 7.38407 38.5464 7.33349 38.5464H7.28292H7.23234H7.18177H7.13119C7.08061 38.5464 7.08061 38.5464 7.08061 38.5464C7.08061 38.5464 7.03004 38.5464 7.03004 38.597C7.03004 38.6475 7.03004 38.6475 7.03004 38.6981C7.03004 38.7487 7.03004 38.7993 7.03004 38.8498C7.03004 39.0521 6.92889 42.5419 6.92889 42.6936C6.92889 42.6936 6.92889 42.7442 6.92889 42.7948C6.92889 42.8453 6.92889 42.8453 6.92889 42.8959C6.92889 42.9465 6.92889 42.9465 6.87831 42.9465C6.82774 42.9971 6.77716 42.9465 6.77716 42.9465C6.72658 42.9465 2.37706 42.643 2.17476 42.643C2.17476 42.643 2.07361 42.643 2.02303 42.5924C1.97246 42.5924 1.92188 42.5419 1.92188 42.5419C1.87131 42.4913 1.87131 42.4407 1.87131 42.4407C1.97246 38.0912 1.92188 34.9049 1.71958 34.6015C1.61843 34.3992 1.4667 34.2474 1.4667 34.2474C1.36555 34.1463 1.21382 34.0451 1.06209 33.9946C1.06209 33.8934 1.06209 33.8428 1.06209 33.7417V33.4888C1.11267 33.6405 1.11267 33.1348 1.11267 33.1348Z" fill="#EF8A52"/>
</svg>
