<svg width="61" height="65" viewBox="0 0 61 65" fill="none" xmlns="http://www.w3.org/2000/svg">
<path d="M43.4724 35.4279C45.8797 34.3128 48.2765 33.4993 50.631 33.0011C51.3101 32.8574 51.7441 32.1903 51.6005 31.5112C51.4568 30.8321 50.7905 30.398 50.1105 30.5418C47.3851 31.1184 44.6172 32.0829 41.849 33.4157C40.3026 31.5714 38.5323 29.6431 36.6224 27.7332C34.5929 25.7037 32.5422 23.8307 30.5941 22.218C32.2799 20.0864 33.6558 17.6997 34.6968 15.0877C36.3199 11.0152 37.1429 6.36228 37.1429 1.2579C37.1429 0.563702 36.5801 0.000976562 35.886 0.000976562C35.1919 0.000976562 34.6291 0.563702 34.6291 1.2579C34.6291 9.12274 32.6125 15.6319 28.63 20.6548C27.8785 20.0815 27.1499 19.5546 26.454 19.0854C22.7289 16.5729 20.5102 15.984 19.2701 17.1796C19.2613 17.1878 19.2521 17.1958 19.2435 17.2043C19.2423 17.2055 19.241 17.2067 19.2398 17.2078C19.239 17.2085 19.2384 17.2094 19.2376 17.21C18.92 17.5284 18.7239 17.9134 18.6496 18.3728L0.0978028 62.6127C-0.0995345 63.0833 0.00730418 63.6267 0.368168 63.9875C0.608743 64.228 0.930265 64.3557 1.25732 64.3557C1.42097 64.3557 1.58613 64.3238 1.74312 64.2579C1.74664 64.2564 1.74312 64.2579 1.74664 64.2564L45.983 45.7057C46.4024 45.6378 46.7588 45.4664 47.0601 45.1952C47.0819 45.177 47.1024 45.1577 47.1229 45.1383C47.131 45.1304 47.1396 45.1239 47.1476 45.1158C47.1488 45.1146 47.1498 45.1132 47.1509 45.112C47.1596 45.1035 47.1677 45.0942 47.176 45.0853C48.3714 43.8451 47.7826 41.6265 45.2701 37.9016C44.739 37.1142 44.1356 36.2854 43.4724 35.4279ZM9.96932 55.4012C9.707 57.0369 9.12366 58.112 8.84299 58.5545L3.60425 60.7513L8.92469 48.0642C9.96568 50.6737 10.3265 53.1735 9.96932 55.4012ZM17.7039 51.1483C17.1971 54.0372 15.853 55.4298 15.4708 55.7752L12.1586 57.1641C12.8949 54.5429 13.0885 50.3821 10.243 44.9205L14.0097 35.9386C17.9179 43.3482 18.2111 48.2577 17.7039 51.1483ZM22.1875 52.9583L19.4783 54.0945C19.7365 53.4423 19.9641 52.6995 20.1291 51.8577C21.1351 46.7228 19.4928 40.3738 15.2503 32.9803L16.6103 29.7373C17.6867 31.0326 18.9132 32.8658 19.41 34.0217C19.6145 34.4977 20.0781 34.7827 20.5653 34.7827C20.7309 34.7827 20.8993 34.7497 21.0611 34.6803C21.6988 34.4062 21.9936 33.6671 21.7196 33.0292C20.9825 31.3143 19.1136 28.6458 17.684 27.1771L19.762 22.2217C20.126 22.8891 20.5769 23.6204 21.1176 24.422C21.4899 24.9741 21.8978 25.5464 22.3365 26.1346C26.636 32.6588 26.5387 39.3367 25.6982 43.7924C24.8044 48.5316 22.8905 52.0014 22.1875 52.9583ZM31.8725 48.897L25.9054 51.3993C26.767 49.5094 27.646 47.0283 28.1683 44.2585C28.7518 41.1647 29.0084 37.0962 27.9288 32.7029C28.5242 33.3319 29.1367 33.9622 29.765 34.5906C31.6451 36.4706 33.5428 38.215 35.3609 39.744C35.1806 45.6783 32.4587 48.3824 31.8725 48.897ZM36.2051 47.0801C36.878 45.6881 37.4721 43.8941 37.7371 41.6534C38.4958 42.2325 39.2314 42.7647 39.9336 43.2382C40.7356 43.7792 41.4667 44.2298 42.1344 44.5938L36.2051 47.0801ZM40.626 40.6608C37.8934 38.7247 34.6675 35.9376 31.5427 32.8128C28.418 29.6881 25.6307 26.4622 23.6948 23.7296C21.8226 21.0872 21.3181 19.7379 21.1852 19.1534C21.7697 19.2864 23.119 19.7909 25.7615 21.663C26.1534 21.9406 26.5561 22.2374 26.9664 22.5485C26.8782 22.6392 26.7913 22.7308 26.7016 22.8205C26.2108 23.3113 26.2108 24.1072 26.7016 24.5981C26.9471 24.8435 27.2688 24.9663 27.5904 24.9663C27.9121 24.9663 28.2338 24.8435 28.4792 24.5981C28.6371 24.4403 28.7925 24.2803 28.9463 24.1187C30.8529 25.6948 32.8689 27.5349 34.8449 29.511C36.5441 31.2102 38.1418 32.9387 39.5589 34.602C39.3319 34.7281 39.105 34.8563 38.8781 34.9872C38.2769 35.3344 38.0709 36.1031 38.4181 36.7042C38.6509 37.1074 39.0733 37.3329 39.5078 37.3329C39.721 37.3329 39.9372 37.2785 40.135 37.1642C40.484 36.9626 40.8331 36.7692 41.1822 36.5803C41.7283 37.2738 42.2351 37.9482 42.6928 38.5942C44.5651 41.2367 45.0695 42.586 45.2023 43.1705C44.6176 43.0374 43.2683 42.5328 40.626 40.6608Z" fill="#2D63B9"/>
<path d="M22.736 36.2674C22.4511 35.6343 21.7071 35.352 21.074 35.6369C20.4606 35.913 20.1765 36.6201 20.4186 37.2396C20.6089 37.7378 21.0847 38.0478 21.5926 38.0478C21.7304 38.0478 21.8704 38.025 22.0079 37.977C22.663 37.7477 23.0084 37.0306 22.779 36.3754C22.7671 36.3413 22.7508 36.3003 22.736 36.2674Z" fill="#2D63B9"/>
<path d="M46.9377 19.4434C47.1832 19.6888 47.5048 19.8116 47.8265 19.8116C48.1482 19.8116 48.4698 19.6888 48.7152 19.4434C51.5236 16.6351 56.0735 15.348 59.3955 15.0799C60.0874 15.0241 60.603 14.4177 60.5472 13.7259C60.4913 13.034 59.8863 12.5204 59.1932 12.5742C55.4258 12.8782 50.2281 14.3755 46.9377 17.6659C46.4469 18.1567 46.4469 18.9526 46.9377 19.4434Z" fill="#2D63B9"/>
<path d="M9.23935 10.5111H10.4963V11.768C10.4963 12.4621 11.059 13.025 11.7532 13.025C12.4474 13.025 13.0101 12.4621 13.0101 11.768V10.5111H14.267C14.9612 10.5111 15.524 9.94825 15.524 9.25418C15.524 8.5601 14.9612 7.99725 14.267 7.99725H13.0101V6.74032C13.0101 6.04625 12.4474 5.4834 11.7532 5.4834C11.059 5.4834 10.4963 6.04625 10.4963 6.74032V7.99725H9.23935C8.54515 7.99725 7.98242 8.5601 7.98242 9.25418C7.98242 9.94838 8.54515 10.5111 9.23935 10.5111Z" fill="#2D63B9"/>
<path d="M38.6512 22.7026H39.9083V23.9594C39.9083 24.6536 40.4711 25.2164 41.1652 25.2164C41.8594 25.2164 42.4221 24.6536 42.4221 23.9594V22.7026H43.6789C44.373 22.7026 44.9358 22.1398 44.9358 21.4457C44.9358 20.7516 44.373 20.1888 43.6789 20.1888H42.4221V18.9317C42.4221 18.2377 41.8594 17.6748 41.1652 17.6748C40.4711 17.6748 39.9083 18.2377 39.9083 18.9317V20.1888H38.6512C37.9571 20.1888 37.3943 20.7516 37.3943 21.4457C37.3943 22.1399 37.9571 22.7026 38.6512 22.7026Z" fill="#2D63B9"/>
<path d="M56.1223 52.4914H54.8653V51.2345C54.8653 50.5404 54.3025 49.9775 53.6084 49.9775C52.9143 49.9775 52.3515 50.5404 52.3515 51.2345V52.4914H51.0946C50.4005 52.4914 49.8376 53.0542 49.8376 53.7483C49.8376 54.4424 50.4005 55.0052 51.0946 55.0052H52.3515V56.2622C52.3515 56.9562 52.9143 57.5191 53.6084 57.5191C54.3025 57.5191 54.8653 56.9562 54.8653 56.2622V55.0052H56.1223C56.8163 55.0052 57.3792 54.4424 57.3792 53.7483C57.3792 53.0542 56.8165 52.4914 56.1223 52.4914Z" fill="#2D63B9"/>
<path d="M49.0161 7.54155C51.0953 7.54155 52.7869 5.84998 52.7869 3.77078C52.7869 1.69157 51.0953 0 49.0161 0C46.9369 0 45.2454 1.69157 45.2454 3.77078C45.2454 5.84998 46.9369 7.54155 49.0161 7.54155ZM49.0161 2.51385C49.7092 2.51385 50.2731 3.07771 50.2731 3.77078C50.2731 4.46385 49.7092 5.0277 49.0161 5.0277C48.3231 5.0277 47.7592 4.46385 47.7592 3.77078C47.7592 3.07771 48.3231 2.51385 49.0161 2.51385Z" fill="#2D63B9"/>
<path d="M56.8758 21.8223C54.7966 21.8223 53.105 23.5138 53.105 25.593C53.105 27.6722 54.7966 29.3638 56.8758 29.3638C58.955 29.3638 60.6465 27.6722 60.6465 25.593C60.6465 23.5138 58.9548 21.8223 56.8758 21.8223ZM56.8758 26.85C56.1827 26.85 55.6188 26.2861 55.6188 25.593C55.6188 24.9 56.1827 24.3361 56.8758 24.3361C57.5688 24.3361 58.1327 24.9 58.1327 25.593C58.1327 26.2861 57.5688 26.85 56.8758 26.85Z" fill="#2D63B9"/>
<path d="M24.9507 12.0186C27.0299 12.0186 28.7215 10.327 28.7215 8.24783C28.7215 6.16862 27.0299 4.47705 24.9507 4.47705C22.8715 4.47705 21.1799 6.16862 21.1799 8.24783C21.1799 10.327 22.8715 12.0186 24.9507 12.0186ZM24.9507 6.9909C25.6438 6.9909 26.2076 7.55476 26.2076 8.24783C26.2076 8.9409 25.6438 9.50475 24.9507 9.50475C24.2576 9.50475 23.6938 8.9409 23.6938 8.24783C23.6938 7.55488 24.2576 6.9909 24.9507 6.9909Z" fill="#2D63B9"/>
</svg>
