<svg width="74" height="89" viewBox="0 0 74 89" fill="none" xmlns="http://www.w3.org/2000/svg">
<path d="M32.7186 84.4034L36.9838 88.6155L63.1749 62.7501C69.8565 56.1356 74 47.0066 74 36.9247C74 16.7449 57.4339 0.384766 37 0.384766C16.5661 0.384766 0 16.7449 0 36.9247C0 46.9986 4.14355 56.1516 10.8008 62.7261C11.3684 63.2866 12.1144 63.6149 12.9577 63.6149C14.62 63.6149 15.966 62.2856 15.966 60.644C15.966 59.8112 15.6011 59.0505 15.0416 58.4979C9.47907 53.0045 6.00855 45.341 6.00855 36.9247C6.00855 20.0521 19.9069 6.32661 36.9919 6.32661C54.0769 6.32661 67.9833 20.0521 67.9833 36.9247C67.9833 45.365 64.5047 53.0125 58.8935 58.554L32.7186 84.4034Z" fill="#2D63B9"/>
<path d="M42.8369 44.8016V48.4869H56.9233V44.8016H54.1827L44.8584 20.3076L36.9962 34.6089L29.1421 20.3076L19.8097 44.8016H17.0771V48.4869H31.1635V44.8016H29.0542L31.1076 38.6927L36.9962 48.7692L42.8928 38.6927L44.9463 44.8016H42.8369Z" fill="#2D63B9"/>
</svg>
