<svg width="70" height="70" viewBox="0 0 70 70" fill="none" xmlns="http://www.w3.org/2000/svg">
<path d="M41.3639 43.5481C40.8049 43.5481 40.246 43.3348 39.8196 42.9082L26.9872 30.0759C26.1341 29.2229 26.1341 27.8399 26.9872 26.987C27.8402 26.1339 29.2232 26.1339 30.0761 26.987L42.9085 39.8193C43.7615 40.6723 43.7615 42.0553 42.9085 42.9082C42.4819 43.3348 41.923 43.5481 41.3639 43.5481Z" fill="#2D63B9"/>
<path d="M19.6586 52.4214C19.0897 52.4214 18.5313 52.1991 18.1137 51.7815C17.4959 51.1637 17.3056 50.2371 17.6301 49.4258L26.367 27.5836C26.589 27.0286 27.0289 26.5888 27.5838 26.3668L49.4261 17.6299C50.2375 17.3054 51.1639 17.4957 51.7818 18.1134C52.3995 18.7313 52.5898 19.6578 52.2653 20.4691L43.5284 42.3114C43.3064 42.8663 42.8666 43.3062 42.3116 43.5282L20.4694 52.2651C20.2064 52.3703 19.9314 52.4214 19.6586 52.4214ZM30.0755 30.0752L23.579 46.3163L39.8201 39.8199L46.3166 23.5788L30.0755 30.0752Z" fill="#2D63B9"/>
<path d="M34.9477 69.8953C25.6128 69.8953 16.8367 66.2602 10.2358 59.6595C3.63497 53.0587 0 44.2825 0 34.9477C0 25.6128 3.6351 16.8367 10.2358 10.2358C16.8366 3.63497 25.6128 0 34.9477 0C44.2825 0 53.0586 3.6351 59.6595 10.2358C66.2604 16.8366 69.8953 25.6128 69.8953 34.9477C69.8953 44.2825 66.2602 53.0586 59.6595 59.6595C53.0587 66.2604 44.2825 69.8953 34.9477 69.8953ZM34.9477 4.36846C18.0862 4.36846 4.36846 18.0862 4.36846 34.9477C4.36846 51.8091 18.0862 65.5269 34.9477 65.5269C51.8091 65.5269 65.5269 51.8091 65.5269 34.9477C65.5269 18.0862 51.8091 4.36846 34.9477 4.36846Z" fill="#2D63B9"/>
</svg>
