<svg width="70" height="70" viewBox="0 0 70 70" fill="none" xmlns="http://www.w3.org/2000/svg">
<path d="M69.8953 47.3022C69.8953 37.1143 63.0307 28.2131 53.3504 25.5308C52.742 11.3499 41.0167 0 26.6885 0C11.9722 0 0 11.9722 0 26.6885C0 31.4847 1.27662 36.1544 3.70082 40.2541L0.0981196 53.2784L13.123 49.6763C16.8915 51.9048 21.1427 53.1601 25.5303 53.3494C28.2121 63.0301 37.1138 69.8953 47.3022 69.8953C51.3688 69.8953 55.3235 68.8123 58.7982 66.7544L69.7967 69.7967L66.7544 58.7982C68.8123 55.3235 69.8953 51.3688 69.8953 47.3022ZM13.7693 45.2481L5.97197 47.4051L8.129 39.6078L7.63733 38.8388C5.32032 35.2138 4.09543 31.0122 4.09543 26.6885C4.09543 14.2305 14.2305 4.09543 26.6885 4.09543C39.1465 4.09543 49.2817 14.2305 49.2817 26.6885C49.2817 39.1465 39.1465 49.2817 26.6885 49.2817C22.3649 49.2817 18.1639 48.0568 14.5382 45.7398L13.7693 45.2481ZM63.9234 63.9234L58.1375 62.3225L57.3648 62.8254C54.3695 64.7712 50.8894 65.7999 47.3022 65.7999C39.2948 65.7999 32.2584 60.6225 29.7654 53.1984C42.0272 51.7848 51.7848 42.0272 53.199 29.7649C60.6225 32.2584 65.7999 39.2948 65.7999 47.3022C65.7999 50.8894 64.7712 54.3695 62.8254 57.3648L62.3225 58.1375L63.9234 63.9234Z" fill="#2D63B9"/>
<path d="M24.6409 36.9951H28.7363V41.0905H24.6409V36.9951Z" fill="#2D63B9"/>
<path d="M30.7838 20.476C30.7838 21.6391 30.3103 22.7125 29.4507 23.4991L24.6407 27.9016V32.8988H28.7361V29.7051L32.2156 26.5205C33.9082 24.9714 34.8793 22.7685 34.8793 20.476C34.8793 15.9593 31.2051 12.2852 26.6884 12.2852C22.1717 12.2852 18.4976 15.9593 18.4976 20.476H22.593C22.593 18.2177 24.4301 16.3806 26.6884 16.3806C28.9468 16.3806 30.7838 18.2177 30.7838 20.476Z" fill="#2D63B9"/>
</svg>
