<svg width="27" height="26" viewBox="0 0 27 26" fill="none" xmlns="http://www.w3.org/2000/svg">
<path d="M3.83633 0H23.1586C24.9969 0 26.5 1.50342 26.5 3.33698V22.663C26.5 24.4966 24.9969 26 23.1637 26H3.83633C2.00312 26.0051 0.5 24.5016 0.5 22.6681V3.33698C0.5 1.50342 2.00312 0 3.83633 0ZM19.4414 2.89002C18.7965 2.89002 18.2734 3.41824 18.2734 4.06329V6.86188C18.2734 7.50693 18.8016 8.03516 19.4414 8.03516H22.3816C23.0266 8.03516 23.5547 7.50693 23.5547 6.86188V4.05821C23.5547 3.41317 23.0266 2.88494 22.3816 2.88494C22.3766 2.89002 19.4414 2.89002 19.4414 2.89002ZM23.5598 10.9963H21.2746C21.493 11.7074 21.6098 12.454 21.6098 13.2311C21.6098 17.5534 17.9891 21.0631 13.5254 21.0631C9.06172 21.0631 5.44102 17.5585 5.44102 13.2311C5.44102 12.454 5.55781 11.7074 5.77617 10.9963H3.38945V21.9824C3.38945 22.5513 3.85156 23.0135 4.42031 23.0135H22.5238C23.0926 23.0135 23.5547 22.5513 23.5547 21.9824V10.9963H23.5598ZM13.5254 7.88279C10.641 7.88279 8.30508 10.1481 8.30508 12.9416C8.30508 15.7351 10.641 18.0004 13.5254 18.0004C16.4098 18.0004 18.7457 15.7351 18.7457 12.9416C18.7457 10.1481 16.4098 7.88279 13.5254 7.88279Z" fill="white"/>
</svg>
