<svg width="55" height="35" viewBox="0 0 55 35" fill="none" xmlns="http://www.w3.org/2000/svg">
<path d="M10.3353 30.9009V34.1636H9.8692V31.2738H8.19121L7.81832 33.3246C7.7251 33.884 7.35222 34.1636 6.88611 34.1636H6.60645V33.6975H6.88611C7.16577 33.6975 7.35222 33.6043 7.44544 33.3246L7.91155 30.9009H10.3353Z" fill="white"/>
<path d="M11.7334 30.8994V33.6028L14.1572 30.8994H14.6233V34.1622H14.1572V31.4587L11.7334 34.1622H11.2673V30.8994H11.7334Z" fill="white"/>
<path d="M18.5388 30.8994V31.3655H16.0218V34.2554H15.5557V30.9926H18.5388V30.8994Z" fill="white"/>
<path d="M21.0554 30.8994L22.4537 34.1622H21.9876L21.8012 33.6028H19.3774L19.191 34.1622H18.7249L20.1232 30.8994H21.0554ZM19.3774 33.23H21.5215L20.7757 31.2723H20.3096L19.3774 33.23Z" fill="white"/>
<path d="M28.1406 30.8994V31.3655H25.6236V34.2554H25.1575V30.9926H28.1406V30.8994Z" fill="white"/>
<path d="M31.6828 30.8994V31.3655H29.2591V32.2977H31.4964V32.7638H29.2591V33.7893H31.7761V34.2554H28.793V30.9926H31.6828V30.8994Z" fill="white"/>
<path d="M34.3861 30.8994C35.1319 30.8994 35.6912 31.3655 35.6912 32.1113C35.6912 32.8571 35.1319 33.3232 34.3861 33.3232H32.8946V34.1622H32.4285V30.8994H34.3861ZM32.9878 33.0435H34.4793C35.0387 33.0435 35.3183 32.7638 35.3183 32.2045C35.3183 31.7384 34.9454 31.3655 34.4793 31.3655H32.9878V33.0435Z" fill="white"/>
<path d="M38.2082 34.3491C37.1827 34.3491 36.3438 33.6965 36.3438 32.5779C36.3438 31.5524 37.1827 30.8066 38.2082 30.8066C39.2336 30.8066 40.0726 31.4592 40.0726 32.5779C40.0726 33.6033 39.2336 34.3491 38.2082 34.3491ZM38.2082 33.883C38.954 33.883 39.6065 33.4168 39.6065 32.5779C39.6065 31.7389 39.0472 31.2727 38.2082 31.2727C37.4624 31.2727 36.8099 31.7389 36.8099 32.5779C36.8099 33.4168 37.4624 33.883 38.2082 33.883Z" fill="white"/>
<path d="M43.7085 30.8994V31.3655H41.2847V32.2977H43.522V32.7638H41.2847V33.7893H43.8017V34.2554H40.8186V30.9926H43.7085V30.8994Z" fill="white"/>
<path d="M46.5985 30.8994C47.1578 30.8994 47.6239 31.2723 47.6239 31.7384C47.6239 32.0181 47.5307 32.2045 47.3443 32.391C47.7171 32.4842 47.9036 32.8571 47.9036 33.23C47.9036 33.7893 47.4375 34.2554 46.7849 34.2554H44.5476V30.9926H46.5985V30.8994ZM45.0137 32.2977H46.6917C46.9714 32.2977 47.1578 32.1113 47.1578 31.8316C47.1578 31.552 47.0646 31.3655 46.5985 31.3655H45.0137V32.2977ZM45.0137 33.7893H46.6917C47.1578 33.7893 47.3443 33.5096 47.3443 33.23C47.3443 32.8571 47.1578 32.6706 46.7849 32.6706H44.9205V33.7893H45.0137Z" fill="white"/>
<path d="M24.1318 25.4949L22.8267 25.122L21.0555 23.2576L23.9454 24.0033L24.6911 24.5627V23.1644L19.0046 16.9185L21.6148 16.7321L4.55528 1.35051L6.41971 5.6387L0.26709 0.0454102L6.97904 11.3252L9.86891 13.8422L10.7079 15.8931L8.65703 14.0286L12.9452 21.2067L18.0724 22.5118L21.708 25.7746H24.225L24.6911 27.0797V25.7746L25.903 25.4017L24.1318 25.4949Z" fill="white"/>
<path d="M30.3776 25.4939L31.6827 25.121L33.3607 23.2566L30.4708 24.0024L29.8183 24.5617V23.1634L35.5048 16.9175L32.8014 16.7311L49.8609 1.34954L48.0897 5.63773L54.2423 0.0444336L47.4372 11.3242L44.6405 13.8412L43.7083 15.8921L45.8524 14.0277L41.471 21.2057L36.437 22.5108L32.8014 25.7736H30.2844L29.8183 27.0787V25.7736L28.5132 25.4007L30.3776 25.4939Z" fill="white"/>
</svg>
