<svg width="97" height="20" viewBox="0 0 97 20" fill="none" xmlns="http://www.w3.org/2000/svg">
<path d="M18.3417 0.954102H1.58742C1.12104 0.954102 0.751465 1.32854 0.751465 1.78136V18.3613C0.751465 18.8141 1.12104 19.1885 1.58742 19.1885H18.3417C18.7993 19.1885 19.1777 18.8228 19.1777 18.3613V1.78136C19.1689 1.32854 18.7993 0.954102 18.3417 0.954102ZM12.4724 15.3396C12.4724 15.6357 12.2348 15.8708 11.9357 15.8708H11.3373C11.0381 15.8708 10.8005 15.6357 10.8005 15.3396V12.6227C10.8005 12.0741 10.5365 11.7171 9.99977 11.7171C9.4454 11.7171 9.12861 12.1003 9.12861 12.7534V15.3396C9.12861 15.6357 8.89102 15.8708 8.59184 15.8708H7.99347C7.69429 15.8708 7.4567 15.6357 7.4567 15.3396V12.6227C7.4567 12.0741 7.19272 11.7171 6.65595 11.7171C6.10158 11.7171 5.78479 12.1003 5.78479 12.7534V15.3396C5.78479 15.6357 5.54721 15.8708 5.24802 15.8708H4.64965C4.35047 15.8708 4.11288 15.6357 4.11288 15.3396V10.855C4.11288 10.5764 4.34167 10.35 4.62326 10.35H5.27442C5.55601 10.35 5.78479 10.5764 5.78479 10.855C6.03998 10.4806 6.53275 10.1932 7.28071 10.1932C7.94068 10.1932 8.43345 10.4545 8.74143 10.9247C9.05822 10.4806 9.56859 10.1932 10.3605 10.1932C11.6453 10.1932 12.4812 11.0989 12.4812 12.4834V15.3396H12.4724ZM15.8251 15.3396C15.8251 15.6357 15.5875 15.8708 15.2883 15.8708H14.6899C14.3907 15.8708 14.1531 15.6357 14.1531 15.3396V8.33844C14.1531 8.04237 14.3907 7.80725 14.6899 7.80725H15.2883C15.5875 7.80725 15.8251 8.04237 15.8251 8.33844V15.3396Z" fill="white"/>
<path d="M40.1117 0.953613H23.3574C22.8999 0.953613 22.5215 1.31935 22.5215 1.78087V18.3608C22.5215 18.8136 22.8911 19.188 23.3574 19.188H40.1117C40.5693 19.188 40.9477 18.8223 40.9477 18.3608V1.78087C40.9477 1.32805 40.5693 0.953613 40.1117 0.953613ZM26.7101 15.8703C26.2437 15.8703 25.8741 15.4959 25.8741 15.0431C25.8741 14.5903 26.2525 14.2158 26.7101 14.2158C27.1676 14.2158 27.546 14.5903 27.546 15.0431C27.546 15.4959 27.1676 15.8703 26.7101 15.8703Z" fill="white"/>
<path d="M52.6686 4.6774V7.55973C52.6686 7.83838 52.4398 8.06479 52.1583 8.06479H51.5071C51.2255 8.06479 50.9967 7.83838 50.9967 7.55973V4.81672C50.9967 4.26812 50.7327 3.9111 50.196 3.9111C49.6416 3.9111 49.3248 4.29425 49.3248 4.94734V7.55102C49.3248 7.82967 49.096 8.05608 48.8144 8.05608H48.1633C47.8817 8.05608 47.6529 7.82967 47.6529 7.55102V4.81672C47.6529 4.26812 47.3889 3.9111 46.8521 3.9111C46.2978 3.9111 45.981 4.29425 45.981 4.94734V7.55102C45.981 7.82967 45.7522 8.05608 45.4706 8.05608H44.8195C44.5379 8.05608 44.3091 7.82967 44.3091 7.55102V3.04901C44.3091 2.77036 44.5379 2.54395 44.8195 2.54395H45.4706C45.7522 2.54395 45.981 2.77036 45.981 3.04901C46.2362 2.67457 46.729 2.38721 47.4769 2.38721C48.1369 2.38721 48.6296 2.64845 48.9376 3.11867C49.2544 2.67457 49.7648 2.38721 50.5567 2.38721C51.8327 2.38721 52.6686 3.29283 52.6686 4.6774Z" fill="white"/>
<path d="M59.5406 3.04901V7.55973C59.5406 7.83838 59.3118 8.06479 59.0302 8.06479H58.379C58.0975 8.06479 57.8687 7.83838 57.8687 7.55973V7.55102C57.4991 7.969 56.9535 8.22153 56.2056 8.22153C54.7448 8.22153 53.5393 6.95017 53.5393 5.30437C53.5393 3.65857 54.7448 2.38721 56.2056 2.38721C56.9535 2.38721 57.4991 2.63974 57.8687 3.05772V3.04901C57.8687 2.77036 58.0975 2.54395 58.379 2.54395H59.0302C59.3118 2.54395 59.5406 2.77036 59.5406 3.04901ZM57.8687 5.30437C57.8687 4.47711 57.3143 3.95464 56.5399 3.95464C55.7656 3.95464 55.2112 4.47711 55.2112 5.30437C55.2112 6.13162 55.7656 6.6541 56.5399 6.6541C57.3143 6.6541 57.8687 6.13162 57.8687 5.30437Z" fill="white"/>
<path d="M64.1165 3.02344V3.79845C64.1165 4.05969 63.9054 4.26868 63.6414 4.2948C63.043 4.35576 62.4358 4.70408 62.4358 5.56616V7.55157C62.4358 7.83023 62.207 8.05663 61.9255 8.05663H61.2743C60.9927 8.05663 60.7639 7.83023 60.7639 7.55157V3.04957C60.7639 2.77091 60.9927 2.54451 61.2743 2.54451H61.9255C62.207 2.54451 62.4358 2.77091 62.4358 3.04957V3.5285C62.5854 3.02344 62.9814 2.70125 63.4478 2.54451C63.7822 2.4313 64.1165 2.68383 64.1165 3.02344Z" fill="white"/>
<path d="M68.2083 7.85616L66.5716 5.62693V7.56009C66.5716 7.83875 66.3428 8.06516 66.0612 8.06516H65.41C65.1284 8.06516 64.8997 7.83875 64.8997 7.56009V1.46453C64.8997 1.18588 65.1284 0.959473 65.41 0.959473H66.0612C66.3428 0.959473 66.5716 1.18588 66.5716 1.46453V4.96513L68.0939 2.77073C68.1907 2.6314 68.3491 2.55303 68.5163 2.55303H69.1938C69.6162 2.55303 69.8538 3.02326 69.6074 3.36287L68.1731 5.30474L69.6426 7.25532C69.8978 7.58622 69.6514 8.06516 69.229 8.06516H68.6219C68.4547 8.06516 68.3051 7.98678 68.2083 7.85616Z" fill="white"/>
<path d="M73.3736 6.74207C73.6991 6.74207 73.9983 6.655 74.2183 6.50696C74.3767 6.40246 74.5879 6.39376 74.7551 6.48954L75.2303 6.75949C75.547 6.94236 75.5734 7.37775 75.2919 7.60416C74.7815 8.00473 74.1391 8.21372 73.356 8.21372C71.4465 8.21372 70.2673 6.94236 70.2673 5.29656C70.2673 3.65075 71.4729 2.37939 73.2328 2.37939C74.8607 2.37939 76.0662 3.62463 76.0662 5.29656C76.0662 5.53167 76.0398 5.74937 75.9958 5.95836H72.036C72.2472 6.54179 72.7576 6.74207 73.3736 6.74207ZM74.3943 4.73054C74.2183 4.08615 73.7167 3.85975 73.2152 3.85975C72.5816 3.85975 72.1504 4.17323 72.0008 4.73054H74.3943Z" fill="white"/>
<path d="M78.9613 4.13039V6.08967C78.9613 6.4467 79.1901 6.5599 79.6213 6.57732C79.8941 6.58603 80.114 6.82114 80.114 7.09979V7.59615C80.114 7.86609 79.9029 8.0925 79.6301 8.10121C77.835 8.17958 77.2894 7.51778 77.2894 6.08967V4.13039H76.911C76.6294 4.13039 76.4006 3.90398 76.4006 3.62533V3.0506C76.4006 2.77195 76.6294 2.54554 76.911 2.54554H77.2894V1.87503C77.2894 1.64862 77.439 1.45705 77.659 1.38738L78.3101 1.19581C78.6357 1.10002 78.9701 1.34384 78.9701 1.68345V2.54554H79.6037C79.8853 2.54554 80.114 2.77195 80.114 3.0506V3.62533C80.114 3.90398 79.8853 4.13039 79.6037 4.13039H78.9613Z" fill="white"/>
<path d="M81.5748 2.54346H82.226C82.5076 2.54346 82.7364 2.76986 82.7364 3.04852V7.55923C82.7364 7.83789 82.5076 8.06429 82.226 8.06429H81.5748C81.2932 8.06429 81.0645 7.83789 81.0645 7.55923V3.04852C81.0645 2.76986 81.2932 2.54346 81.5748 2.54346Z" fill="white"/>
<path d="M89.3269 4.6774V7.55973C89.3269 7.83838 89.0981 8.06479 88.8166 8.06479H88.1654C87.8838 8.06479 87.655 7.83838 87.655 7.55973V4.91251C87.655 4.22458 87.2238 3.9111 86.6871 3.9111C86.0711 3.9111 85.6487 4.26812 85.6487 5.05184V7.55973C85.6487 7.83838 85.4199 8.06479 85.1383 8.06479H84.4872C84.2056 8.06479 83.9768 7.83838 83.9768 7.55973V3.04901C83.9768 2.77036 84.2056 2.54395 84.4872 2.54395H85.1383C85.4199 2.54395 85.6487 2.77036 85.6487 3.04901V3.05772C85.9479 2.64845 86.5111 2.38721 87.2414 2.38721C88.359 2.38721 89.3269 3.17963 89.3269 4.6774Z" fill="white"/>
<path d="M95.6894 2.54485C95.971 2.54485 96.1998 2.77125 96.1998 3.04991V7.78703C96.1998 9.64182 94.739 10.4255 93.2519 10.4255C92.328 10.4255 91.5272 10.1556 90.9729 9.58086C90.7441 9.34575 90.8145 8.9626 91.096 8.79715L91.6504 8.48366C91.8528 8.37046 92.0992 8.42271 92.2576 8.58816C92.4688 8.81457 92.7856 8.9626 93.3047 8.9626C94.0879 8.9626 94.5631 8.56204 94.5631 7.77832V7.27326C94.1935 7.72607 93.6567 7.98731 92.9351 7.98731C91.3512 7.98731 90.1897 6.70724 90.1897 5.18335C90.1897 3.65946 91.3512 2.37939 92.9351 2.37939C93.6567 2.37939 94.1935 2.64063 94.5631 3.09345V3.0412C94.5631 2.76254 94.7919 2.53614 95.0734 2.53614H95.6894V2.54485ZM94.5719 5.19206C94.5719 4.42576 94.0175 3.91199 93.2255 3.91199C92.4336 3.91199 91.8704 4.43447 91.8704 5.19206C91.8704 5.95836 92.4248 6.47213 93.2255 6.47213C94.0087 6.47213 94.5719 5.95836 94.5719 5.19206Z" fill="white"/>
<path d="M44.8104 9.4585H45.4616C45.7432 9.4585 45.972 9.6849 45.972 9.96356V17.0083C45.972 17.2869 45.7432 17.5133 45.4616 17.5133H44.8104C44.5288 17.5133 44.3001 17.2869 44.3001 17.0083V9.96356C44.2913 9.6849 44.52 9.4585 44.8104 9.4585Z" fill="white"/>
<path d="M50.178 16.1986C50.5036 16.1986 50.8028 16.1115 51.0228 15.9635C51.1812 15.859 51.3923 15.8503 51.5595 15.9461L52.0347 16.216C52.3515 16.3989 52.3779 16.8343 52.0963 17.0607C51.5859 17.4613 50.9436 17.6703 50.1604 17.6703C48.2509 17.6703 47.0718 16.3989 47.0718 14.7531C47.0718 13.1073 48.2773 11.8359 50.0372 11.8359C51.6651 11.8359 52.8707 13.0812 52.8707 14.7531C52.8707 14.9882 52.8443 15.2059 52.8003 15.4149H48.8405C49.0517 15.9983 49.562 16.1986 50.178 16.1986ZM51.2076 14.1871C51.0316 13.5427 50.53 13.3163 50.0284 13.3163C49.3949 13.3163 48.9637 13.6298 48.8141 14.1871H51.2076Z" fill="white"/>
<path d="M59.5406 12.5065V17.0172C59.5406 17.2959 59.3118 17.5223 59.0302 17.5223H58.379C58.0975 17.5223 57.8687 17.2959 57.8687 17.0172V17.0085C57.4991 17.4265 56.9535 17.679 56.2056 17.679C54.7448 17.679 53.5393 16.4077 53.5393 14.7619C53.5393 13.1161 54.7448 11.8447 56.2056 11.8447C56.9535 11.8447 57.4991 12.0973 57.8687 12.5152V12.5065C57.8687 12.2279 58.0975 12.0015 58.379 12.0015H59.0302C59.3118 12.0015 59.5406 12.2279 59.5406 12.5065ZM57.8599 14.7619C57.8599 13.9346 57.3055 13.4122 56.5311 13.4122C55.7568 13.4122 55.2024 13.9346 55.2024 14.7619C55.2024 15.5891 55.7568 16.1116 56.5311 16.1116C57.3055 16.1116 57.8599 15.5891 57.8599 14.7619Z" fill="white"/>
<path d="M66.0613 12.0014C66.3428 12.0014 66.5716 12.2278 66.5716 12.5064V17.2436C66.5716 19.0984 65.1109 19.8821 63.6238 19.8821C62.6998 19.8821 61.8991 19.6121 61.3447 19.0374C61.1159 18.8023 61.1863 18.4191 61.4679 18.2537L62.0223 17.9402C62.2246 17.827 62.471 17.8793 62.6294 18.0447C62.8406 18.2711 63.1574 18.4191 63.6766 18.4191C64.4597 18.4191 64.9349 18.0186 64.9349 17.2349V16.7298C64.5653 17.1826 64.0286 17.4439 63.307 17.4439C61.7231 17.4439 60.5615 16.1638 60.5615 14.6399C60.5615 13.116 61.7231 11.8359 63.307 11.8359C64.0286 11.8359 64.5653 12.0972 64.9349 12.55V12.4977C64.9349 12.2191 65.1637 11.9927 65.4453 11.9927H66.0613V12.0014ZM64.9437 14.6486C64.9437 13.8823 64.3893 13.3685 63.5974 13.3685C62.8054 13.3685 62.2422 13.891 62.2422 14.6486C62.2422 15.4149 62.7966 15.9287 63.5974 15.9287C64.3893 15.9287 64.9437 15.4149 64.9437 14.6486Z" fill="white"/>
<path d="M73.136 12.506V17.0167C73.136 17.2953 72.9072 17.5217 72.6256 17.5217H71.9745C71.6929 17.5217 71.4641 17.2953 71.4641 17.0167V17.008C71.1649 17.4172 70.6017 17.6785 69.8714 17.6785C68.745 17.6785 67.7859 16.8861 67.7859 15.3883V12.506C67.7859 12.2273 68.0147 12.0009 68.2963 12.0009H68.9474C69.229 12.0009 69.4578 12.2273 69.4578 12.506V15.1445C69.4578 15.8324 69.889 16.1459 70.4257 16.1459C71.0417 16.1459 71.4641 15.7888 71.4641 15.0051V12.4972C71.4641 12.2186 71.6929 11.9922 71.9745 11.9922H72.6256C72.8984 12.0009 73.136 12.2273 73.136 12.506Z" fill="white"/>
<path d="M77.1927 16.1986C77.5182 16.1986 77.8174 16.1115 78.0374 15.9635C78.1958 15.859 78.407 15.8503 78.5742 15.9461L79.0494 16.216C79.3661 16.3989 79.3925 16.8343 79.1109 17.0607C78.6006 17.4613 77.9582 17.6703 77.1751 17.6703C75.2656 17.6703 74.0864 16.3989 74.0864 14.7531C74.0864 13.1073 75.292 11.8359 77.0519 11.8359C78.6798 11.8359 79.8853 13.0812 79.8853 14.7531C79.8853 14.9882 79.8589 15.2059 79.8149 15.4149H75.8551C76.0663 15.9983 76.5855 16.1986 77.1927 16.1986ZM78.2222 14.1871C78.0462 13.5427 77.5446 13.3163 77.0431 13.3163C76.4095 13.3163 75.9783 13.6298 75.8287 14.1871H78.2222Z" fill="white"/>
<path d="M81.9009 0.342285C82.3673 0.342285 82.7369 0.716727 82.7369 1.16954C82.7369 1.63106 82.3585 1.99679 81.9009 1.99679C81.4345 1.99679 81.0649 1.62235 81.0649 1.16954C81.0649 0.716727 81.4345 0.342285 81.9009 0.342285Z" fill="white"/>
</svg>
