<svg width="26" height="26" viewBox="0 0 26 26" fill="none" xmlns="http://www.w3.org/2000/svg">
<path d="M4.00638 0H21.9936C24.2062 0 26 1.79373 26 4.00641V21.9936C26 24.2062 24.2062 26 21.9936 26H4.00638C1.79373 26 0 24.2062 0 21.9936V4.00641C0 1.79373 1.79373 0 4.00638 0Z" fill="white"/>
<path d="M12.7818 18.2008H13.8453C13.8453 18.2008 14.1665 18.1654 14.3308 17.9887C14.4817 17.8264 14.4769 17.5216 14.4769 17.5216C14.4769 17.5216 14.4561 16.0945 15.1183 15.8843C15.7714 15.6772 16.6098 17.2636 17.4984 17.8736C18.1704 18.3351 18.6811 18.2341 18.6811 18.2341L21.0573 18.2008C21.0573 18.2008 22.3003 18.1241 21.7109 17.1468C21.6626 17.067 21.3675 16.4239 19.944 15.1026C18.4539 13.7196 18.6537 13.9434 20.4485 11.5512C21.5415 10.0944 21.9784 9.205 21.8419 8.82413C21.7118 8.46124 20.9078 8.55708 20.9078 8.55708L18.2324 8.57363C18.2324 8.57363 18.0339 8.5466 17.8869 8.63457C17.7431 8.72061 17.6508 8.92163 17.6508 8.92163C17.6508 8.92163 17.2272 10.0489 16.6626 11.0077C15.4713 13.0306 14.9948 13.1377 14.8001 13.0119C14.347 12.7191 14.4602 11.8359 14.4602 11.2083C14.4602 9.24774 14.7576 8.43033 13.8812 8.21871C13.5904 8.14853 13.3762 8.10211 12.6323 8.09453C11.6777 8.08483 10.8698 8.09745 10.4123 8.32159C10.1079 8.47066 9.87306 8.80276 10.0162 8.82188C10.193 8.84541 10.5934 8.92994 10.8057 9.21879C11.08 9.59189 11.0704 10.4295 11.0704 10.4295C11.0704 10.4295 11.2279 12.7374 10.7024 13.024C10.3418 13.2206 9.84709 12.8192 8.78494 10.9838C8.2408 10.0437 7.82984 9.00445 7.82984 9.00445C7.82984 9.00445 7.75071 8.81026 7.60936 8.70631C7.43792 8.58038 7.19837 8.54046 7.19837 8.54046L4.65589 8.55706C4.65589 8.55706 4.27429 8.56773 4.13408 8.73367C4.00933 8.88141 4.12411 9.18664 4.12411 9.18664C4.12411 9.18664 6.11447 13.8434 8.36837 16.1902C10.4352 18.3421 12.7818 18.2008 12.7818 18.2008Z" fill="#2D63B9"/>
</svg>
