<svg width="60" height="47" viewBox="0 0 60 47" fill="none" xmlns="http://www.w3.org/2000/svg">
<path d="M14.7889 26.4342C14.7889 18.0469 21.6128 11.2229 30 11.2229C38.3874 11.2229 45.2111 18.0469 45.2111 26.4342C45.2111 34.8214 38.3871 41.6453 30 41.6453C21.6128 41.6453 14.7889 34.8214 14.7889 26.4342ZM16.8425 26.434C16.8425 33.6893 22.7448 39.5915 30 39.5915C37.2552 39.5915 43.1574 33.6893 43.1574 26.434C43.1574 19.1788 37.2552 13.2765 30 13.2765C22.7447 13.2765 16.8425 19.1788 16.8425 26.434Z" fill="white" stroke="#2D63B9" stroke-width="0.4"/>
<path d="M20.584 26.4342C20.584 21.2424 24.8082 17.0184 29.9999 17.0184C35.1915 17.0184 39.4157 21.2426 39.4157 26.4342C39.4157 31.6257 35.1915 35.8498 29.9999 35.8498C24.8082 35.8498 20.584 31.6259 20.584 26.4342ZM22.5087 26.4342C22.5087 30.565 25.869 33.9252 29.9999 33.9252C34.1308 33.9252 37.4911 30.565 37.491 26.4342C37.491 22.3034 34.1307 18.943 29.9999 18.943C25.869 18.943 22.5087 22.3034 22.5087 26.4342Z" fill="white" stroke="#2D63B9" stroke-width="0.4"/>
<path d="M40.1403 6.62416L40.1885 6.75523H40.3281H56.1257C58.1515 6.75523 59.8 8.4037 59.8 10.4296V42.4391C59.8 44.465 58.1515 46.1134 56.1257 46.1134H3.87434C1.84846 46.1134 0.2 44.465 0.2 42.4391V10.4296C0.2 8.4037 1.84846 6.75523 3.87434 6.75523H5.55H5.75V6.55523V4.83293C5.75 3.55483 6.79026 2.51457 8.06836 2.51457H11.7855C13.0639 2.51457 14.1039 3.55482 14.1039 4.83293V6.55512V6.75512H14.3039H19.6718H19.8114L19.8595 6.62405L21.4731 2.22964L21.2854 2.1607L21.4731 2.22964C21.9187 1.01602 23.0874 0.2 24.3804 0.2H35.6196C36.9126 0.2 38.0813 1.01591 38.5269 2.22963L40.1403 6.62416ZM37.5765 6.75523H37.863L37.7643 6.4863L36.4777 2.98205C36.346 2.62335 36.0016 2.38293 35.6195 2.38293H24.3803C23.9982 2.38293 23.6538 2.62335 23.5221 2.98205L22.2355 6.4863L22.1368 6.75523H22.4232H37.5765ZM11.8502 6.75523H12.0502V6.55523V4.83293C12.0502 4.6872 11.932 4.56836 11.7857 4.56836H8.06848C7.92215 4.56836 7.80391 4.6872 7.80391 4.83293V6.55523V6.75523H8.00391H11.8502ZM2.58293 16.1286H2.38293V16.3286V36.5399V36.7399H2.58293H6.40828H6.60828V36.5399V16.3286V16.1286H6.40828H2.58293ZM2.58293 38.9228H2.38293V39.1228V42.4391C2.38293 43.2616 3.05172 43.9305 3.87434 43.9305H56.1257C56.8803 43.9305 57.5057 43.3674 57.6036 42.6391H57.6171V42.4391V39.1228V38.9228H57.4171H52.3003C51.6976 38.9228 51.2089 38.434 51.2089 37.8314V15.0371C51.2089 14.4345 51.6975 13.9457 52.3003 13.9457H57.4171H57.6171V13.7457V10.4295C57.6171 9.60698 56.9483 8.93805 56.1257 8.93805H39.4354C39.4318 8.93805 39.4286 8.93813 39.4262 8.93822C39.4236 8.93813 39.4203 8.93805 39.4168 8.93805H3.87434C3.05186 8.93805 2.38293 9.60684 2.38293 10.4295V13.7457V13.9457H2.58293H7.69969C8.30242 13.9457 8.79109 14.4345 8.79109 15.0371V37.8314C8.79109 38.434 8.30242 38.9228 7.69969 38.9228H2.58293ZM39.419 8.93858C39.418 8.93864 39.4188 8.93859 39.4197 8.93855L39.419 8.93858ZM57.4171 36.7399H57.6171V36.5399V16.3286V16.1286H57.4171H53.5917H53.3917V16.3286V36.5399V36.7399H53.5917H57.4171Z" fill="white" stroke="#2D63B9" stroke-width="0.4"/>
<path d="M25.4485 26.4344C25.4485 23.925 27.4904 21.8831 29.9998 21.8831C30.5313 21.8831 30.9619 22.3139 30.9619 22.8455C30.9619 23.377 30.5312 23.8078 29.9997 23.8078C28.5512 23.8078 27.3731 24.9859 27.3731 26.4344C27.3731 26.9659 26.9423 27.3966 26.4108 27.3966C25.8793 27.3966 25.4485 26.9659 25.4485 26.4344Z" fill="white" stroke="#2D63B9" stroke-width="0.4"/>
</svg>
