<svg width="70" height="49" viewBox="0 0 70 49" fill="none" xmlns="http://www.w3.org/2000/svg">
  <path d="M14.7209 32.3018C14.3781 32.7992 14.5033 33.4803 15.0007 33.8231C15.4981 34.1658 16.1792 34.0406 16.522 33.5432C16.5292 33.5328 16.5362 33.5221 16.543 33.5115C20.3449 27.757 26.7818 24.2955 33.6788 24.2966C34.2828 24.2966 34.7726 23.8069 34.7726 23.2029C34.7726 22.5989 34.2828 22.1091 33.6788 22.1091C26.0487 22.1072 18.9273 25.936 14.7209 32.3018Z" fill="white"/>
  <path d="M68.9062 46.1716H62.3438V44.8504C62.3692 37.7644 59.4795 30.9799 54.3528 26.0882C53.928 25.6586 53.2355 25.6548 52.806 26.0794C52.3764 26.5042 52.3726 27.1967 52.7972 27.6263C52.8101 27.6393 52.8232 27.652 52.8367 27.6643C57.5323 32.1452 60.1791 38.3598 60.1561 44.8504V46.1716H9.84375V44.8504C9.85824 31.6927 20.5211 21.0299 33.6787 21.0154H36.3213C38.353 21.014 40.3766 21.2713 42.3434 21.781C42.9222 21.9542 43.5317 21.6256 43.7049 21.0468C43.8781 20.4681 43.5494 19.8586 42.9707 19.6854C42.9442 19.6775 42.9172 19.6705 42.8902 19.6646C41.3796 19.275 39.837 19.022 38.2811 18.9088V15.5466C38.2811 14.9426 37.7914 14.4529 37.1874 14.4529H32.8124C32.2083 14.4529 31.7186 14.9426 31.7186 15.5466V18.9088C18.1552 19.9476 7.67402 31.2471 7.65611 44.8504V46.1716H1.09375C0.489727 46.1716 0 46.6614 0 47.2654C0 47.8694 0.489727 48.3591 1.09375 48.3591H68.9062C69.5103 48.3591 70 47.8694 70 47.2654C70 46.6614 69.5103 46.1716 68.9062 46.1716ZM33.9062 16.6404H36.0938V18.8279H33.9062V16.6404Z" fill="white"/>
  <path d="M46.3028 13.6248C47.3211 14.5338 48.125 15.2513 48.125 16.7158C48.125 18.1803 47.3211 18.8978 46.3028 19.8122C44.7549 20.8939 43.8085 22.6431 43.75 24.5306C43.75 25.1346 44.2397 25.6244 44.8438 25.6244C45.4478 25.6244 45.9375 25.1346 45.9375 24.5306C45.9375 23.0661 46.7414 22.3486 47.7597 21.4397C49.3086 20.3563 50.2549 18.6051 50.3125 16.7158C50.2549 14.8267 49.3086 13.0759 47.7597 11.993C46.7414 11.0841 45.9375 10.3666 45.9375 8.90313C45.9375 7.43969 46.7414 6.72328 47.7597 5.81437C49.3086 4.73252 50.2551 2.98225 50.3125 1.09375C50.3125 0.489727 49.8228 0 49.2188 0C48.6147 0 48.125 0.489727 48.125 1.09375C48.125 2.55609 47.3211 3.2725 46.3028 4.18141C44.7537 5.26367 43.8071 7.01436 43.75 8.90313C43.8077 10.7918 44.7541 12.5423 46.3028 13.6248Z" fill="white"/>
  <path d="M52.8653 13.6248C53.8836 14.5338 54.6875 15.2513 54.6875 16.7158C54.6875 18.1803 53.8836 18.9033 52.8653 19.8078C51.3162 20.8905 50.3696 22.6414 50.3125 24.5306C50.3125 25.1346 50.8022 25.6244 51.4062 25.6244C52.0103 25.6244 52.5 25.1346 52.5 24.5306C52.5 23.0661 53.3039 22.3486 54.3222 21.4397C55.8711 20.3563 56.8174 18.6051 56.875 16.7158C56.8174 14.8267 55.8711 13.0759 54.3222 11.993C53.3039 11.0841 52.5 10.3666 52.5 8.90313C52.5 7.43969 53.3039 6.72328 54.3222 5.81437C55.8711 4.73252 56.8176 2.98225 56.875 1.09375C56.875 0.489727 56.3853 0 55.7812 0C55.1772 0 54.6875 0.489727 54.6875 1.09375C54.6875 2.55609 53.8836 3.2725 52.8653 4.18141C51.3162 5.26367 50.3696 7.01436 50.3125 8.90313C50.3702 10.7918 51.3166 12.5423 52.8653 13.6248Z" fill="white"/>
  <path d="M59.4278 13.6248C60.4461 14.5338 61.25 15.2513 61.25 16.7158C61.25 18.1803 60.4461 18.9033 59.4278 19.8078C57.8787 20.8905 56.9321 22.6414 56.875 24.5306C56.875 25.1346 57.3647 25.6244 57.9688 25.6244C58.5728 25.6244 59.0625 25.1346 59.0625 24.5306C59.0625 23.0661 59.8664 22.3486 60.8847 21.4397C62.4336 20.3563 63.3799 18.6051 63.4375 16.7158C63.3799 14.8267 62.4336 13.0759 60.8847 11.993C59.8664 11.0841 59.0625 10.3666 59.0625 8.90313C59.0625 7.43969 59.8664 6.72328 60.8847 5.81437C62.4336 4.73252 63.3801 2.98225 63.4375 1.09375C63.4375 0.489727 62.9478 0 62.3438 0C61.7397 0 61.25 0.489727 61.25 1.09375C61.25 2.55609 60.4461 3.2725 59.4278 4.18141C57.8787 5.26367 56.9321 7.01436 56.875 8.90313C56.9327 10.7918 57.8791 12.5423 59.4278 13.6248Z" fill="white"/>
</svg>
