<svg width="64" height="64" viewBox="0 0 64 64" fill="none" xmlns="http://www.w3.org/2000/svg">
<path d="M32 48.25C31.31 48.25 30.75 48.81 30.75 49.5C30.75 50.19 31.31 50.75 32 50.75C32.69 50.75 33.25 50.19 33.25 49.5C33.25 48.81 32.69 48.25 32 48.25Z" fill="white"/>
<path d="M58.6359 7.67125C55.5599 6.43237 51.5606 5.75 47.375 5.75C43.1894 5.75 39.1901 6.43237 36.1141 7.67125C34.2964 8.40337 32.9085 9.29813 32 10.3021C31.0915 9.29813 29.7036 8.4035 27.8859 7.67137C24.8099 6.43237 20.8106 5.75 16.625 5.75C12.4394 5.75 8.44012 6.43237 5.36412 7.67125C1.905 9.0645 0 11.0457 0 13.25V43.25C0 45.4543 1.905 47.4355 5.36412 48.8288C8.225 49.981 11.8848 50.651 15.75 50.7393V50.75C15.75 55.0257 22.736 58.25 32 58.25C41.264 58.25 48.25 55.0257 48.25 50.75V50.7393C52.1152 50.651 55.775 49.981 58.6359 48.8288C62.095 47.4355 64 45.4543 64 43.25V13.25C64 11.0457 62.095 9.0645 58.6359 7.67125ZM61.5 35.75C61.5 36.8171 60.0446 38.0661 57.7019 39.0098C55.1662 40.031 51.762 40.6489 48.25 40.7376V35.75C48.25 35.7464 48.2497 35.7428 48.2497 35.7393C52.1151 35.6511 55.7749 34.9811 58.636 33.8288C59.7589 33.3765 60.7168 32.862 61.5001 32.2982L61.5 35.75ZM30.75 20.75C30.75 21.8171 29.2946 23.0661 26.9519 24.0098C24.206 25.1157 20.442 25.75 16.625 25.75C12.808 25.75 9.044 25.1157 6.29812 24.0098C3.95537 23.0661 2.5 21.8171 2.5 20.75V17.2983C3.28338 17.862 4.24125 18.3765 5.36412 18.8288C8.44012 20.0676 12.4394 20.75 16.625 20.75C20.8106 20.75 24.8099 20.0676 27.8859 18.8288C29.0088 18.3765 29.9666 17.862 30.75 17.2983V20.75ZM5.36412 26.3288C8.44012 27.5676 12.4394 28.25 16.625 28.25C20.8106 28.25 24.8099 27.5676 27.8859 26.3288C29.0088 25.8765 29.9666 25.362 30.75 24.7983V28.2721C27.5163 28.3816 24.415 28.9124 21.9066 29.7957C19.3908 30.6819 17.5804 31.8635 16.5959 33.2496C12.7889 33.2464 9.037 32.6129 6.29812 31.5098C3.95537 30.5661 2.5 29.3171 2.5 28.25V24.7983C3.28338 25.362 4.24125 25.8765 5.36412 26.3288ZM2.5 32.2982C3.28338 32.862 4.24125 33.3765 5.36412 33.8288C8.22512 34.981 11.885 35.651 15.7504 35.7393C15.7504 35.7429 15.7501 35.7465 15.7501 35.75V40.7376C12.238 40.6489 8.83388 40.031 6.29825 39.0098C3.95538 38.0661 2.5 36.8171 2.5 35.75V32.2982ZM18.3822 35.1359C19.3086 32.98 24.6555 30.75 32 30.75C39.3445 30.75 44.6914 32.98 45.6167 35.1334C45.7065 35.3435 45.75 35.5451 45.75 35.75C45.75 36.849 44.3951 38.0697 42.1256 39.0154C39.4411 40.134 35.8451 40.75 32 40.75C28.1549 40.75 24.5589 40.134 21.8744 39.0154C19.6049 38.0697 18.25 36.849 18.25 35.75C18.25 35.5451 18.2936 35.3435 18.3822 35.1359ZM61.5 28.25C61.5 29.3171 60.0446 30.5661 57.7019 31.5098C54.9631 32.6129 51.2114 33.2464 47.4045 33.2496C46.4207 31.8643 44.6101 30.6821 42.0934 29.7957C39.585 28.9123 36.4837 28.3816 33.25 28.2721V24.7983C34.0334 25.362 34.9912 25.8765 36.1141 26.3288C39.1901 27.5676 43.1894 28.25 47.375 28.25C51.5606 28.25 55.5599 27.5676 58.6359 26.3288C59.7588 25.8765 60.7166 25.362 61.5 24.7983V28.25ZM61.5 20.75C61.5 21.8171 60.0446 23.0661 57.7019 24.0098C54.956 25.1157 51.192 25.75 47.375 25.75C43.558 25.75 39.794 25.1157 37.0481 24.0098C34.7054 23.0661 33.25 21.8171 33.25 20.75V17.2983C34.0334 17.862 34.9912 18.3765 36.1141 18.8288C39.1901 20.0676 43.1894 20.75 47.375 20.75C51.5606 20.75 55.5599 20.0676 58.6359 18.8288C59.7588 18.3765 60.7166 17.862 61.5 17.2983V20.75ZM37.0481 9.99025C39.794 8.88425 43.558 8.25 47.375 8.25C51.192 8.25 54.956 8.88425 57.7019 9.99025C60.0446 10.9339 61.5 12.1829 61.5 13.25C61.5 14.3171 60.0446 15.5661 57.7019 16.5098C54.956 17.6158 51.192 18.25 47.375 18.25C43.558 18.25 39.794 17.6158 37.0481 16.5098C34.7054 15.5661 33.25 14.3171 33.25 13.25C33.25 12.1829 34.7054 10.9339 37.0481 9.99025ZM6.29812 9.99025C9.044 8.88425 12.808 8.25 16.625 8.25C20.442 8.25 24.206 8.88425 26.9519 9.99025C29.2946 10.9339 30.75 12.1829 30.75 13.25C30.75 14.3171 29.2946 15.5661 26.9519 16.5098C24.206 17.6158 20.442 18.25 16.625 18.25C12.808 18.25 9.044 17.6158 6.29812 16.5098C3.95537 15.5661 2.5 14.3171 2.5 13.25C2.5 12.1829 3.95537 10.9339 6.29812 9.99025ZM6.29812 46.5098C3.95537 45.5661 2.5 44.3171 2.5 43.25V39.7982C3.28338 40.362 4.24125 40.8765 5.36412 41.3288C8.225 42.481 11.8848 43.151 15.75 43.2393V48.2378C12.2379 48.1489 8.83375 47.5311 6.29812 46.5098ZM42.1256 54.0154C39.4411 55.134 35.8451 55.75 32 55.75C28.1549 55.75 24.5589 55.134 21.8744 54.0154C19.6049 53.0697 18.25 51.849 18.25 50.75V47.3711C18.5331 47.576 18.846 47.7796 19.193 47.9804C21.1341 49.1036 23.7752 49.9345 26.831 50.383C26.8926 50.392 26.9536 50.3964 27.0141 50.3964C27.6241 50.3964 28.158 49.9492 28.2493 49.3278C28.3495 48.6448 27.877 48.0098 27.1941 47.9095C21.3848 47.0566 18.25 44.8724 18.25 43.25V39.86C21.0793 41.9303 26.0734 43.25 32 43.25C37.9266 43.25 42.9207 41.9303 45.75 39.86V43.25C45.75 44.8724 42.6152 47.0566 36.8059 47.9095C36.1229 48.0098 35.6504 48.6448 35.7508 49.3278C35.842 49.9494 36.3759 50.3964 36.9859 50.3964C37.0462 50.3964 37.1075 50.392 37.169 50.383C40.2246 49.9345 42.8657 49.1037 44.807 47.9804C45.1539 47.7796 45.4669 47.576 45.75 47.3711V50.75C45.75 51.849 44.3951 53.0697 42.1256 54.0154ZM57.7019 46.5098C55.1662 47.531 51.762 48.1489 48.25 48.2376V43.2391C52.1152 43.1509 55.775 42.4809 58.6359 41.3286C59.7588 40.8764 60.7166 40.3619 61.5 39.7981V43.25C61.5 44.3171 60.0446 45.5661 57.7019 46.5098Z" fill="white"/>
</svg>
