<svg width="48" height="44" viewBox="0 0 48 44" fill="none" xmlns="http://www.w3.org/2000/svg">
<path d="M41.3412 16.0003L40.9917 15.9964C36.1178 15.9964 31.7327 18.7209 29.5027 22.9874C28.0999 22.3547 26.5789 21.9951 24.9952 21.9951C22.379 21.9951 19.9186 22.9279 17.9707 24.5525C17.9331 22.835 17.7094 21.1245 17.4911 19.605C17.3041 18.3058 17.1247 17.0452 17.113 15.9956L22.1678 15.9964C22.9684 15.9964 23.7221 15.684 24.2884 15.1177L28.2876 11.1185C29.4306 9.97551 29.4385 8.14217 28.3474 6.96737C28.7285 6.39618 28.91 5.71205 28.8402 5.01349C28.7513 4.11622 28.27 3.3137 27.5192 2.81375L25.092 1.19599C23.9194 0.413909 22.5535 0 21.1427 0C18.2019 0 15.4378 1.14528 13.3583 3.22485C9.52792 7.055 6.51397 11.4408 4.39728 16.261C1.84709 22.0683 0.554378 26.3525 0.554378 28.9936C0.554378 30.5069 0.423532 31.7361 0.164839 32.6481C-0.387789 34.5958 0.482113 36.6735 2.27965 37.7006C9.48022 41.815 17.6698 43.9902 25.9629 43.9902H27.4088C32.5493 43.9902 37.6282 43.1662 42.5052 41.5406L43.2052 41.3063C46.0669 40.3534 47.9903 37.6851 47.9903 34.6681V23.0037C47.9902 19.2389 45.0075 16.097 41.3412 16.0003ZM45.9906 34.6681C45.9906 36.823 44.6169 38.7287 42.5714 39.4103L41.8714 39.6446C37.2006 41.2009 32.3344 41.9907 27.4088 41.9907H25.9628C18.0173 41.9907 10.1703 39.9072 3.2715 35.9647C2.27365 35.3945 1.78748 34.255 2.08816 33.1938C2.39766 32.1051 2.5539 30.6914 2.5539 28.9935C2.5539 26.6639 3.82412 22.5398 6.22884 17.0655C8.24402 12.4727 11.1184 8.29204 14.7719 4.63857C16.4736 2.93682 18.7359 1.99953 21.1426 1.99953C22.157 1.99953 23.1392 2.2973 23.9828 2.85968L26.41 4.47745C26.6609 4.64438 26.821 4.91188 26.8503 5.21069C26.8806 5.51044 26.7751 5.80334 26.5632 6.0162L23.3696 9.20984C23.0278 9.55158 22.5075 9.63556 22.0759 9.41979C21.7498 9.2567 21.5292 8.95696 21.4706 8.59676C21.412 8.23655 21.5263 7.88207 21.7841 7.62431L22.7028 6.70558C23.0934 6.31501 23.0934 5.68234 22.7028 5.29186C22.3122 4.90129 21.6796 4.90129 21.2891 5.29186L20.3703 6.2106C19.6527 6.92819 19.3334 7.91534 19.4965 8.91797C19.6596 9.91974 20.2737 10.7545 21.1817 11.2085C22.3826 11.808 23.8324 11.5757 24.7834 10.6237L26.9703 8.43676C27.2405 8.82611 27.2204 9.35831 26.8737 9.70492L22.8746 13.7041C22.6881 13.8906 22.4303 13.997 22.1677 13.997L17.4993 13.9962C17.562 13.8925 17.6222 13.7857 17.7038 13.7041C18.0944 13.3135 18.0944 12.6808 17.7038 12.2903C17.3133 11.8998 16.6806 11.8998 16.2901 12.2903C14.6547 13.9257 15.0521 16.6898 15.512 19.8902C15.7502 21.5519 15.9972 23.2704 15.9972 24.9945C15.9972 29.1128 12.8807 29.9895 12.7479 30.0247C12.2167 30.1624 11.8946 30.7022 12.0283 31.2354C12.1416 31.6903 12.5487 31.993 12.9968 31.993C13.0769 31.993 13.1589 31.9832 13.24 31.9627C14.4371 31.6636 16.3989 30.5148 17.3851 28.1583C17.3987 28.1402 17.4208 28.1333 17.4334 28.1139C19.1011 25.5344 21.9276 23.9947 24.9952 23.9947C27.3833 23.9947 29.6329 24.9203 31.3288 26.6016C31.7213 26.9902 32.3549 26.9882 32.7425 26.5957C33.1311 26.2031 33.1291 25.5705 32.7366 25.182C32.2741 24.7233 31.767 24.3279 31.2427 23.9636C33.1218 20.3235 36.8479 17.996 40.9916 17.996L41.2874 18C43.8806 18.0683 45.9905 20.3129 45.9905 23.0037V34.6681H45.9906Z" fill="white"/>
</svg>
