<svg width="38" height="52" viewBox="0 0 38 52" fill="none" xmlns="http://www.w3.org/2000/svg">
<path d="M1.125 51.3125H36.875C37.0988 51.3125 37.3134 51.2236 37.4716 51.0654C37.6299 50.9071 37.7188 50.6925 37.7188 50.4688V24.3125C37.7187 24.1459 37.6694 23.983 37.577 23.8444L33.6731 19.4886C33.4415 19.1405 33.2993 18.7406 33.2593 18.3244L31.6525 1.4513C31.6326 1.24231 31.5355 1.04824 31.3802 0.907004C31.2248 0.765764 31.0224 0.6875 30.8125 0.6875H25.75C25.5262 0.6875 25.3116 0.776395 25.1534 0.934629C24.9951 1.09286 24.9062 1.30747 24.9062 1.53125C24.9062 1.55962 24.897 4.39873 24.095 7.20547C23.0912 10.7187 21.3771 12.5 19 12.5C13.172 12.5 13.0938 1.64052 13.0938 1.53125C13.0938 1.30747 13.0049 1.09286 12.8466 0.934629C12.6884 0.776395 12.4738 0.6875 12.25 0.6875H7.1875C6.97756 0.6875 6.77517 0.765764 6.61985 0.907004C6.46453 1.04824 6.36744 1.24231 6.34755 1.4513L4.74063 18.3245C4.70065 18.7407 4.55857 19.1406 4.32698 19.4887L0.423106 23.8445C0.330665 23.9831 0.281306 24.1459 0.28125 24.3125V50.4688C0.28125 50.6925 0.370145 50.9071 0.528379 51.0654C0.686613 51.2236 0.901224 51.3125 1.125 51.3125ZM1.96875 24.5679L5.73087 20.4247C6.11699 19.8445 6.35386 19.1779 6.42043 18.4841L7.95468 2.375H11.4337C11.4933 3.49423 11.6826 5.56954 12.2825 7.66953C13.8215 13.0567 16.7852 14.1875 19 14.1875C21.2148 14.1875 24.1785 13.0567 25.7175 7.66953C26.3174 5.56975 26.5067 3.49445 26.5663 2.375H30.0453L31.5795 18.4845C31.6461 19.1783 31.883 19.8449 32.2691 20.4251L36.0312 24.5679V49.625H1.96875V24.5679Z" fill="white"/>
<path d="M11.6641 34.9999H10.8121L9.56408 32.6719V34.9999H8.58008V30.7279H9.43208L10.6801 33.0559V30.7279H11.6641V34.9999ZM13.7941 33.8299H11.9821V33.1219H13.7941V33.8299ZM13.0921 31.7839C13.0921 31.5359 13.0661 31.3859 13.0141 31.3339C12.9861 31.3059 12.9441 31.2919 12.8881 31.2919C12.8321 31.2919 12.7901 31.3059 12.7621 31.3339C12.7101 31.3859 12.6841 31.5359 12.6841 31.7839C12.6841 32.0279 12.7101 32.1759 12.7621 32.2279C12.7941 32.2599 12.8361 32.2759 12.8881 32.2759C12.9401 32.2759 12.9821 32.2599 13.0141 32.2279C13.0661 32.1759 13.0921 32.0279 13.0921 31.7839ZM13.8361 31.8139C13.8361 32.2059 13.7541 32.4859 13.5901 32.6539C13.4101 32.8419 13.1761 32.9359 12.8881 32.9359C12.6001 32.9359 12.3661 32.8419 12.1861 32.6539C12.0221 32.4779 11.9401 32.1979 11.9401 31.8139C11.9401 31.4299 12.0221 31.1499 12.1861 30.9739C12.3661 30.7859 12.6001 30.6919 12.8881 30.6919C13.1761 30.6919 13.4101 30.7859 13.5901 30.9739C13.7541 31.1499 13.8361 31.4299 13.8361 31.8139Z" fill="white"/>
<path d="M17.6977 33.7039C17.6977 34.1239 17.5637 34.4519 17.2957 34.6879C17.0277 34.9199 16.7037 35.0359 16.3237 35.0359C15.9437 35.0359 15.6197 34.9199 15.3517 34.6879C15.0837 34.4519 14.9497 34.1239 14.9497 33.7039V32.0239C14.9497 31.6039 15.0837 31.2779 15.3517 31.0459C15.6197 30.8099 15.9437 30.6919 16.3237 30.6919C16.7037 30.6919 17.0277 30.8099 17.2957 31.0459C17.5637 31.2779 17.6977 31.6039 17.6977 32.0239V33.7039ZM16.7137 33.7099V32.0239C16.7137 31.8799 16.6757 31.7699 16.5997 31.6939C16.5277 31.6179 16.4357 31.5799 16.3237 31.5799C16.2117 31.5799 16.1177 31.6179 16.0417 31.6939C15.9697 31.7699 15.9337 31.8799 15.9337 32.0239V33.7099C15.9337 33.8539 15.9697 33.9639 16.0417 34.0399C16.1177 34.1119 16.2117 34.1479 16.3237 34.1479C16.4357 34.1479 16.5277 34.1119 16.5997 34.0399C16.6757 33.9639 16.7137 33.8539 16.7137 33.7099Z" fill="white"/>
<path d="M21.6317 33.7039C21.6317 34.1239 21.4977 34.4519 21.2297 34.6879C20.9617 34.9199 20.6377 35.0359 20.2577 35.0359C19.8777 35.0359 19.5537 34.9199 19.2857 34.6879C19.0177 34.4519 18.8837 34.1239 18.8837 33.7039V32.0239C18.8837 31.6039 19.0177 31.2779 19.2857 31.0459C19.5537 30.8099 19.8777 30.6919 20.2577 30.6919C20.6377 30.6919 20.9617 30.8099 21.2297 31.0459C21.4977 31.2779 21.6317 31.6039 21.6317 32.0239V33.7039ZM20.6477 33.7099V32.0239C20.6477 31.8799 20.6097 31.7699 20.5337 31.6939C20.4617 31.6179 20.3697 31.5799 20.2577 31.5799C20.1457 31.5799 20.0517 31.6179 19.9757 31.6939C19.9037 31.7699 19.8677 31.8799 19.8677 32.0239V33.7099C19.8677 33.8539 19.9037 33.9639 19.9757 34.0399C20.0517 34.1119 20.1457 34.1479 20.2577 34.1479C20.3697 34.1479 20.4617 34.1119 20.5337 34.0399C20.6097 33.9639 20.6477 33.8539 20.6477 33.7099Z" fill="white"/>
<path d="M25.5657 33.7039C25.5657 34.1239 25.4317 34.4519 25.1637 34.6879C24.8957 34.9199 24.5717 35.0359 24.1917 35.0359C23.8117 35.0359 23.4877 34.9199 23.2197 34.6879C22.9517 34.4519 22.8177 34.1239 22.8177 33.7039V32.0239C22.8177 31.6039 22.9517 31.2779 23.2197 31.0459C23.4877 30.8099 23.8117 30.6919 24.1917 30.6919C24.5717 30.6919 24.8957 30.8099 25.1637 31.0459C25.4317 31.2779 25.5657 31.6039 25.5657 32.0239V33.7039ZM24.5817 33.7099V32.0239C24.5817 31.8799 24.5437 31.7699 24.4677 31.6939C24.3957 31.6179 24.3037 31.5799 24.1917 31.5799C24.0797 31.5799 23.9857 31.6179 23.9097 31.6939C23.8377 31.7699 23.8017 31.8799 23.8017 32.0239V33.7099C23.8017 33.8539 23.8377 33.9639 23.9097 34.0399C23.9857 34.1119 24.0797 34.1479 24.1917 34.1479C24.3037 34.1479 24.3957 34.1119 24.4677 34.0399C24.5437 33.9639 24.5817 33.8539 24.5817 33.7099Z" fill="white"/>
<path d="M29.4997 33.7039C29.4997 34.1239 29.3657 34.4519 29.0977 34.6879C28.8297 34.9199 28.5057 35.0359 28.1257 35.0359C27.7457 35.0359 27.4217 34.9199 27.1537 34.6879C26.8857 34.4519 26.7517 34.1239 26.7517 33.7039V32.0239C26.7517 31.6039 26.8857 31.2779 27.1537 31.0459C27.4217 30.8099 27.7457 30.6919 28.1257 30.6919C28.5057 30.6919 28.8297 30.8099 29.0977 31.0459C29.3657 31.2779 29.4997 31.6039 29.4997 32.0239V33.7039ZM28.5157 33.7099V32.0239C28.5157 31.8799 28.4777 31.7699 28.4017 31.6939C28.3297 31.6179 28.2377 31.5799 28.1257 31.5799C28.0137 31.5799 27.9197 31.6179 27.8437 31.6939C27.7717 31.7699 27.7357 31.8799 27.7357 32.0239V33.7099C27.7357 33.8539 27.7717 33.9639 27.8437 34.0399C27.9197 34.1119 28.0137 34.1479 28.1257 34.1479C28.2377 34.1479 28.3297 34.1119 28.4017 34.0399C28.4777 33.9639 28.5157 33.8539 28.5157 33.7099Z" fill="white"/>
</svg>
