<svg width="66" height="66" viewBox="0 0 66 66" fill="none" xmlns="http://www.w3.org/2000/svg">
<path d="M42.0234 27.1992C42.0234 23.2899 38.8429 20.1094 34.9336 20.1094H25.2656C24.5538 20.1094 23.9766 20.6866 23.9766 21.3984V33C23.9766 33.7118 24.5538 34.2891 25.2656 34.2891H34.9336C38.8429 34.2891 42.0234 31.1086 42.0234 27.1992ZM26.5547 22.6875H34.9336C37.4214 22.6875 39.4453 24.7115 39.4453 27.1992C39.4453 29.687 37.4214 31.7109 34.9336 31.7109H26.5547V22.6875Z" fill="white"/>
<path d="M49.7578 27.1992C49.7578 19.0251 43.1077 12.375 34.9336 12.375H17.5312C16.8194 12.375 16.2422 12.9522 16.2422 13.6641V52.3359C16.2422 53.0478 16.8194 53.625 17.5312 53.625H25.2656C25.9774 53.625 26.5547 53.0478 26.5547 52.3359V42.0234H34.9336C43.1077 42.0234 49.7578 35.3733 49.7578 27.1992ZM25.2656 39.4453C24.5538 39.4453 23.9766 40.0226 23.9766 40.7344V51.0469H18.8203V14.9531H34.9336C41.6861 14.9531 47.1797 20.4467 47.1797 27.1992C47.1797 33.9517 41.6861 39.4453 34.9336 39.4453H25.2656Z" fill="white"/>
<path d="M33 66C33.7119 66 34.2891 65.4229 34.2891 64.7109C34.2891 63.999 33.7119 63.4219 33 63.4219C32.2881 63.4219 31.7109 63.999 31.7109 64.7109C31.7109 65.4229 32.2881 66 33 66Z" fill="white"/>
<path d="M60.8438 0H5.15625C2.31309 0 0 2.31309 0 5.15625V60.8438C0 63.6869 2.31309 66 5.15625 66H27.1992C27.911 66 28.4883 65.4228 28.4883 64.7109C28.4883 63.9991 27.911 63.4219 27.1992 63.4219H5.15625C3.73467 63.4219 2.57812 62.2653 2.57812 60.8438V5.15625C2.57812 3.73467 3.73467 2.57812 5.15625 2.57812H60.8438C62.2653 2.57812 63.4219 3.73467 63.4219 5.15625V60.8438C63.4219 62.2653 62.2653 63.4219 60.8438 63.4219H38.8008C38.089 63.4219 37.5117 63.9991 37.5117 64.7109C37.5117 65.4228 38.089 66 38.8008 66H60.8438C63.6869 66 66 63.6869 66 60.8438V5.15625C66 2.31309 63.6869 0 60.8438 0Z" fill="white"/>
</svg>
