<svg width="70" height="66" viewBox="0 0 70 66" fill="none" xmlns="http://www.w3.org/2000/svg">
<path d="M0.684643 0.335204C0.488929 0.374156 0.313408 0.478863 0.188631 0.631099C0.0638534 0.783335 -0.00227711 0.973459 0.00175019 1.16838V37.8279C-0.00579485 37.9393 0.0111135 38.0509 0.051343 38.1553C0.0915726 38.2597 0.154195 38.3545 0.235017 38.4334C0.31584 38.5123 0.412996 38.5734 0.519983 38.6127C0.626969 38.652 0.741315 38.6685 0.855366 38.6611H21.3421C21.4562 38.6685 21.5705 38.652 21.6775 38.6127C21.7845 38.5734 21.8817 38.5123 21.9625 38.4334C22.0433 38.3545 22.1059 38.2597 22.1462 38.1553C22.1864 38.0509 22.2033 37.9393 22.1958 37.8279V1.16838C22.2033 1.05706 22.1864 0.945449 22.1462 0.841025C22.1059 0.736601 22.0433 0.641771 21.9625 0.562885C21.8817 0.483998 21.7845 0.422876 21.6775 0.383609C21.5705 0.344343 21.4562 0.32784 21.3421 0.335204H0.684643ZM24.6712 0.335204C24.46 0.355929 24.2642 0.452777 24.1221 0.606838C23.9801 0.7609 23.9019 0.961111 23.903 1.16838V37.8279C23.8955 37.9393 23.9124 38.0509 23.9526 38.1553C23.9928 38.2597 24.0554 38.3545 24.1363 38.4334C24.2171 38.5123 24.3142 38.5734 24.4212 38.6127C24.5282 38.652 24.6426 38.6685 24.7566 38.6611H45.2434C45.3574 38.6685 45.4718 38.652 45.5788 38.6127C45.6858 38.5734 45.7829 38.5123 45.8637 38.4334C45.9446 38.3545 46.0072 38.2597 46.0474 38.1553C46.0876 38.0509 46.1045 37.9393 46.097 37.8279V1.16838C46.101 0.973459 46.0349 0.783335 45.9101 0.631099C45.7854 0.478863 45.6098 0.374156 45.4141 0.335204H24.6712ZM48.5725 0.335204C48.3612 0.355929 48.1654 0.452777 48.0234 0.606838C47.8813 0.7609 47.8032 0.961111 47.8042 1.16838V37.8279C47.7967 37.9393 47.8136 38.0509 47.8538 38.1553C47.8941 38.2597 47.9567 38.3545 48.0375 38.4334C48.1183 38.5123 48.2155 38.5734 48.3225 38.6127C48.4295 38.652 48.5438 38.6685 48.6579 38.6611H69.1446C69.2587 38.6685 69.373 38.652 69.48 38.6127C69.587 38.5734 69.6842 38.5123 69.765 38.4334C69.8458 38.3545 69.9084 38.2597 69.9487 38.1553C69.9889 38.0509 70.0058 37.9393 69.9983 37.8279V1.16838C70.0023 0.973459 69.9361 0.783335 69.8114 0.631099C69.6866 0.478863 69.5111 0.374156 69.3154 0.335204H48.5725ZM1.70898 2.00155H20.4885V36.9948H1.70898V2.00155ZM25.6102 2.00155H44.3898V36.9948H25.6102V2.00155ZM49.5115 2.00155H68.291V36.9948H49.5115V2.00155ZM5.97706 25.3304C5.29788 25.3304 4.64652 25.5937 4.16627 26.0625C3.68602 26.5312 3.41621 27.167 3.41621 27.8299C3.41621 28.4928 3.68602 29.1286 4.16627 29.5973C4.64652 30.0661 5.29788 30.3294 5.97706 30.3294C6.65624 30.3294 7.3076 30.0661 7.78785 29.5973C8.26811 29.1286 8.53791 28.4928 8.53791 27.8299C8.53791 27.167 8.26811 26.5312 7.78785 26.0625C7.3076 25.5937 6.65624 25.3304 5.97706 25.3304ZM29.8783 25.3304C29.3718 25.3304 28.8767 25.477 28.4556 25.7516C28.0344 26.0263 27.7062 26.4166 27.5124 26.8734C27.3186 27.3301 27.2679 27.8327 27.3667 28.3175C27.4655 28.8024 27.7094 29.2477 28.0675 29.5973C28.4257 29.9469 28.882 30.1849 29.3787 30.2814C29.8755 30.3778 30.3904 30.3283 30.8583 30.1391C31.3262 29.9499 31.7262 29.6296 32.0076 29.2185C32.289 28.8075 32.4392 28.3242 32.4392 27.8299C32.4219 27.1723 32.1465 26.5463 31.67 26.0811C31.1934 25.616 30.552 25.3472 29.8783 25.3304ZM53.7795 25.3304C53.2731 25.3304 52.7779 25.477 52.3568 25.7516C51.9357 26.0263 51.6075 26.4166 51.4136 26.8734C51.2198 27.3301 51.1691 27.8327 51.2679 28.3175C51.3667 28.8024 51.6106 29.2477 51.9688 29.5973C52.3269 29.9469 52.7832 30.1849 53.28 30.2814C53.7767 30.3778 54.2916 30.3283 54.7595 30.1391C55.2275 29.9499 55.6274 29.6296 55.9088 29.2185C56.1902 28.8075 56.3404 28.3242 56.3404 27.8299C56.3231 27.1723 56.0478 26.5463 55.5712 26.0811C55.0947 25.616 54.4533 25.3472 53.7795 25.3304ZM5.97706 26.9967C6.20345 26.9967 6.42058 27.0845 6.58066 27.2407C6.74074 27.397 6.83068 27.6089 6.83068 27.8299C6.83068 28.0508 6.74074 28.2628 6.58066 28.419C6.42058 28.5753 6.20345 28.663 5.97706 28.663C5.75067 28.663 5.53355 28.5753 5.37346 28.419C5.21338 28.2628 5.12345 28.0508 5.12345 27.8299C5.12345 27.6089 5.21338 27.397 5.37346 27.2407C5.53355 27.0845 5.75067 26.9967 5.97706 26.9967ZM29.8783 26.9967C30.0471 26.9967 30.2122 27.0456 30.3526 27.1371C30.4929 27.2287 30.6023 27.3588 30.6669 27.511C30.7316 27.6633 30.7485 27.8308 30.7155 27.9924C30.6826 28.154 30.6013 28.3025 30.4819 28.419C30.3625 28.5355 30.2104 28.6149 30.0448 28.647C29.8793 28.6792 29.7076 28.6627 29.5516 28.5996C29.3957 28.5366 29.2623 28.4298 29.1686 28.2928C29.0748 28.1557 29.0247 27.9947 29.0247 27.8299C29.0171 27.7186 29.0341 27.607 29.0743 27.5025C29.1145 27.3981 29.1771 27.3033 29.258 27.2244C29.3388 27.1455 29.4359 27.0844 29.5429 27.0451C29.6499 27.0058 29.7643 26.9893 29.8783 26.9967ZM53.7795 26.9967C53.9484 26.9967 54.1134 27.0456 54.2538 27.1371C54.3942 27.2287 54.5036 27.3588 54.5682 27.511C54.6328 27.6633 54.6497 27.8308 54.6168 27.9924C54.5838 28.154 54.5025 28.3025 54.3831 28.419C54.2638 28.5355 54.1117 28.6149 53.9461 28.647C53.7805 28.6792 53.6089 28.6627 53.4529 28.5996C53.2969 28.5366 53.1636 28.4298 53.0698 28.2928C52.976 28.1557 52.9259 27.9947 52.9259 27.8299C52.9184 27.7186 52.9353 27.607 52.9755 27.5025C53.0158 27.3981 53.0784 27.3033 53.1592 27.2244C53.24 27.1455 53.3372 27.0844 53.4442 27.0451C53.5512 27.0058 53.6655 26.9893 53.7795 26.9967ZM61.4621 56.1577C61.4621 53.6166 60.4279 51.1795 58.5869 49.3826C56.7459 47.5857 54.249 46.5762 51.6455 46.5762C49.8599 46.5766 48.1093 47.0593 46.5876 47.9711C45.0659 48.8829 43.8325 50.188 43.024 51.7419H13.2328C13.1329 51.7391 13.0339 51.7605 12.9446 51.8041C12.8552 51.8477 12.7783 51.9122 12.7206 51.9919L8.96472 55.6578C8.84046 55.7961 8.77195 55.9738 8.77195 56.1577C8.77195 56.3417 8.84046 56.5193 8.96472 56.6576L12.7206 60.3236C12.8913 60.4902 13.0621 60.5735 13.2328 60.4902H18.3545C18.5582 60.4902 18.7537 60.4112 18.8977 60.2706C19.0418 60.13 19.1227 59.9392 19.1227 59.7404V58.2407H20.6593V59.7404C20.6593 59.9392 20.7402 60.13 20.8843 60.2706C21.0283 60.4112 21.2238 60.4902 21.4275 60.4902H25.9517C26.1554 60.4902 26.3508 60.4112 26.4949 60.2706C26.639 60.13 26.7199 59.9392 26.7199 59.7404V58.2407H28.1711V59.7404C28.1711 59.9392 28.252 60.13 28.3961 60.2706C28.5402 60.4112 28.7356 60.4902 28.9393 60.4902H33.4635C33.6672 60.4902 33.8627 60.4112 34.0067 60.2706C34.1508 60.13 34.2317 59.9392 34.2317 59.7404V58.2407H35.7683V59.7404C35.7683 59.9392 35.8492 60.13 35.9933 60.2706C36.1373 60.4112 36.3328 60.4902 36.5365 60.4902H43.024C44.0227 62.3904 45.6467 63.9079 47.6353 64.7987C49.6239 65.6896 51.8616 65.9022 53.9889 65.4023C56.1162 64.9025 58.0096 63.7192 59.3649 62.0426C60.7203 60.366 61.4589 58.2934 61.4621 56.1577ZM44.0483 59.4904C43.9859 59.3655 43.8888 59.2602 43.7681 59.1865C43.6473 59.1129 43.5078 59.0738 43.3654 59.0738H37.2194V57.5741C37.2194 57.3752 37.1385 57.1845 36.9944 57.0439C36.8503 56.9033 36.6549 56.8243 36.4511 56.8243H33.4635C33.2597 56.8243 33.0643 56.9033 32.9203 57.0439C32.7762 57.1845 32.6952 57.3752 32.6952 57.5741V59.0738H29.7076V57.5741C29.7076 57.3752 29.6266 57.1845 29.4826 57.0439C29.3385 56.9033 29.1431 56.8243 28.9393 56.8243H25.9517C25.7479 56.8243 25.5525 56.9033 25.4084 57.0439C25.2644 57.1845 25.1834 57.3752 25.1834 57.5741V59.0738H22.1958V57.5741C22.1958 57.3752 22.1148 57.1845 21.9707 57.0439C21.8267 56.9033 21.6313 56.8243 21.4275 56.8243H18.4399C18.2361 56.8243 18.0407 56.9033 17.8966 57.0439C17.7525 57.1845 17.6716 57.3752 17.6716 57.5741V59.0738H13.5742L10.5866 56.1577L13.5742 53.2416H43.4508C43.5932 53.2416 43.7327 53.2026 43.8534 53.1289C43.9742 53.0552 44.0713 52.95 44.1337 52.825C44.7617 51.4943 45.745 50.353 46.9805 49.5208C48.216 48.6886 49.6581 48.1963 51.1556 48.0953C52.6531 47.9944 54.1509 48.2887 55.4918 48.9472C56.8328 49.6057 57.9675 50.6043 58.7769 51.8382C59.5863 53.0721 60.0407 54.4959 60.0923 55.9601C60.144 57.4244 59.791 58.8753 59.0704 60.1606C58.3498 61.4459 57.2882 62.5183 55.9968 63.2652C54.7055 64.0122 53.232 64.4063 51.7309 64.4061C50.1132 64.3467 48.5429 63.8574 47.1891 62.9912C45.8353 62.125 44.7494 60.9146 44.0483 59.4904ZM57.7062 56.1577C57.7062 55.4327 57.4859 54.7239 57.0732 54.121C56.6605 53.5182 56.0739 53.0483 55.3876 52.7708C54.7013 52.4934 53.9461 52.4208 53.2175 52.5622C52.489 52.7037 51.8197 53.0528 51.2944 53.5655C50.7692 54.0782 50.4115 54.7314 50.2665 55.4425C50.1216 56.1537 50.196 56.8908 50.4803 57.5606C50.7645 58.2305 51.2459 58.803 51.8636 59.2059C52.4813 59.6087 53.2074 59.8237 53.9503 59.8237C54.9436 59.815 55.8938 59.426 56.5963 58.7403C57.2987 58.0547 57.6973 57.1273 57.7062 56.1577ZM51.6455 56.1577C51.6455 55.7128 51.7807 55.2779 52.0339 54.9079C52.2872 54.538 52.6471 54.2497 53.0683 54.0794C53.4894 53.9091 53.9528 53.8646 54.3999 53.9514C54.847 54.0382 55.2577 54.2524 55.58 54.567C55.9023 54.8816 56.1218 55.2825 56.2108 55.7189C56.2997 56.1552 56.254 56.6075 56.0796 57.0186C55.9052 57.4297 55.6098 57.781 55.2307 58.0282C54.8517 58.2754 54.4061 58.4073 53.9503 58.4073C53.3424 58.3966 52.7626 58.1562 52.3327 57.7366C51.9028 57.317 51.6565 56.751 51.6455 56.1577Z" fill="white"/>
<path d="M5.89282 8.05019C5.90628 7.96973 5.94745 7.89617 6.00953 7.84164C6.07161 7.7871 6.15089 7.75487 6.23427 7.75024H16.2216C16.3102 7.75609 16.3936 7.79308 16.4564 7.85436C16.5191 7.91564 16.557 7.99705 16.563 8.08351" stroke="white" stroke-linecap="round" stroke-linejoin="round"/>
<path d="M5.89282 11.7158C5.89881 11.6294 5.93671 11.548 5.99949 11.4867C6.06227 11.4254 6.14568 11.3884 6.23427 11.3826H16.2216C16.3102 11.3884 16.3936 11.4254 16.4564 11.4867C16.5191 11.548 16.557 11.6294 16.563 11.7158" stroke="white" stroke-linecap="round" stroke-linejoin="round"/>
<path d="M5.89282 15.3821C5.89881 15.2956 5.93671 15.2142 5.99949 15.1529C6.06227 15.0917 6.14568 15.0547 6.23427 15.0488H16.2216C16.3102 15.0547 16.3936 15.0917 16.4564 15.1529C16.5191 15.2142 16.557 15.2956 16.563 15.3821" stroke="white" stroke-linecap="round" stroke-linejoin="round"/>
<path d="M29.7073 8.05007C29.7133 7.9636 29.7512 7.88219 29.8139 7.82091C29.8767 7.75964 29.9601 7.72265 30.0487 7.7168H39.9507C40.0393 7.72265 40.1227 7.75964 40.1854 7.82091C40.2482 7.88219 40.2861 7.9636 40.2921 8.05007" stroke="white" stroke-linecap="round" stroke-linejoin="round"/>
<path d="M29.7073 11.7158C29.7133 11.6294 29.7512 11.548 29.8139 11.4867C29.8767 11.4254 29.9601 11.3884 30.0487 11.3826H39.9507C40.0393 11.3884 40.1227 11.4254 40.1854 11.4867C40.2482 11.548 40.2861 11.6294 40.2921 11.7158" stroke="white" stroke-linecap="round" stroke-linejoin="round"/>
<path d="M29.7073 15.3821C29.7133 15.2956 29.7512 15.2142 29.8139 15.1529C29.8767 15.0917 29.9601 15.0547 30.0487 15.0488H39.9507C40.0393 15.0547 40.1227 15.0917 40.1854 15.1529C40.2482 15.2142 40.2861 15.2956 40.2921 15.3821" stroke="white" stroke-linecap="round" stroke-linejoin="round"/>
<path d="M53.6958 8.05007C53.7018 7.9636 53.7397 7.88219 53.8025 7.82091C53.8653 7.75964 53.9487 7.72265 54.0372 7.7168H64.0246C64.1131 7.72265 64.1965 7.75964 64.2593 7.82091C64.3221 7.88219 64.36 7.9636 64.366 8.05007" stroke="white" stroke-linecap="round" stroke-linejoin="round"/>
<path d="M53.6958 11.7158C53.7018 11.6294 53.7397 11.548 53.8025 11.4867C53.8653 11.4254 53.9487 11.3884 54.0372 11.3826H64.0246C64.1131 11.3884 64.1965 11.4254 64.2593 11.4867C64.3221 11.548 64.36 11.6294 64.366 11.7158" stroke="white" stroke-linecap="round" stroke-linejoin="round"/>
<path d="M53.6958 15.3821C53.7018 15.2956 53.7397 15.2142 53.8025 15.1529C53.8653 15.0917 53.9487 15.0547 54.0372 15.0488H64.0246C64.1131 15.0547 64.1965 15.0917 64.2593 15.1529C64.3221 15.2142 64.36 15.2956 64.366 15.3821" stroke="white" stroke-linecap="round" stroke-linejoin="round"/>
</svg>
