<svg width="178" height="88" viewBox="0 0 178 88" fill="none" xmlns="http://www.w3.org/2000/svg">
<path d="M151.517 43.6182C151.591 43.5836 151.621 43.5534 151.647 43.5578C156.884 43.6009 162.164 42.9495 167.337 44.0193C172.595 45.1065 176.344 48.6784 177.504 54.3296C178.272 58.087 178.091 61.7495 176.633 65.3171C175.153 68.9149 172.518 71.2918 168.915 72.3962C166.983 72.9915 164.903 73.2806 162.88 73.3668C159.33 73.5178 155.758 73.4143 152.195 73.4143C151.988 73.4143 151.781 73.3884 151.509 73.3625V43.6182H151.517ZM157.777 58.4148C157.777 61.2361 157.781 64.0531 157.777 66.8787C157.777 67.3705 157.755 67.789 158.454 67.7674C160.382 67.7113 162.328 67.8278 164.243 67.6423C167.082 67.3705 169.39 66.085 170.581 63.2982C171.65 60.8047 171.719 58.1862 171.189 55.5461C170.451 51.8577 167.958 49.567 164.269 49.2737C162.41 49.1227 160.533 49.1917 158.67 49.0968C157.924 49.0623 157.755 49.3427 157.768 50.0459C157.794 52.8413 157.777 55.6281 157.777 58.4148ZM116.096 73.4186C113.607 73.4186 111.359 73.4272 109.112 73.397C108.896 73.397 108.633 73.1684 108.482 72.9743C106.092 69.851 103.741 66.7105 101.329 63.6088C101.062 63.268 100.514 63.0135 100.074 62.9746C99.0863 62.8797 96.2606 62.9272 96.2606 62.9272C96.2606 62.9272 96.2261 63.1688 96.2348 63.8288C96.2606 66.6199 96.2434 69.4067 96.2434 72.1978V73.3539H89.9839V43.5664C90.2298 43.5405 90.4369 43.4974 90.6439 43.4974C94.9578 43.506 99.2718 43.4758 103.59 43.5491C105.751 43.5793 107.805 44.1703 109.694 45.3006C112.252 46.832 113.482 49.2003 113.685 52.1079C113.779 53.3978 113.667 54.7567 113.391 56.0206C112.779 58.7945 110.958 60.5934 108.434 61.7064C108.111 61.8487 107.787 61.9997 107.369 62.1895C110.264 65.9167 113.111 69.5749 116.1 73.4229L116.096 73.4186ZM96.2348 57.5693C98.2666 57.5693 100.195 57.5736 102.115 57.565C102.619 57.565 103.141 57.5693 103.642 57.4658C106.148 56.9654 107.416 55.4469 107.313 53.1217C107.209 50.8957 105.799 49.4247 103.288 49.2349C101.153 49.0752 99.0086 49.1529 96.8603 49.1098C96.3857 49.0925 96.2261 49.2953 96.2304 49.7568C96.2477 50.9216 96.2304 52.0907 96.2304 53.2554V57.565L96.2348 57.5693ZM148.593 73.41C146.487 73.41 144.499 73.4315 142.514 73.3884C142.294 73.3841 141.984 73.026 141.88 72.7672C141.311 71.3824 140.78 69.9847 140.28 68.5784C140.09 68.0478 139.827 67.8235 139.236 67.8235C135.25 67.8493 131.268 67.8494 127.282 67.8278C126.669 67.8235 126.38 68.0219 126.173 68.6215C125.669 70.0581 125.073 71.4687 124.482 72.8751C124.383 73.0951 124.107 73.3841 123.9 73.3927C121.911 73.4359 119.927 73.4143 117.8 73.4143C118.482 71.6844 119.098 70.0753 119.75 68.4706C122.998 60.3992 126.264 52.3366 129.495 44.2609C129.724 43.6872 130.004 43.4715 130.608 43.4931C132.39 43.5276 134.176 43.5146 135.953 43.5017C136.41 43.5017 136.712 43.575 136.919 44.0927C140.746 53.6739 144.589 63.2507 148.433 72.8276C148.476 72.9656 148.506 73.1123 148.597 73.4186L148.593 73.41ZM133.209 50.007C131.639 54.157 130.086 58.2682 128.503 62.4699H137.955C136.354 58.2768 134.792 54.1527 133.205 50.007H133.209ZM35.1758 73.4315H28.899V43.5923C30.8317 43.5923 32.7255 43.575 34.6063 43.6138C34.8048 43.6182 35.0334 43.9072 35.1844 44.1143C39.1014 49.6662 43.0055 55.2312 46.9096 60.7918C47.3798 61.4561 47.8587 62.1119 48.4453 62.9272V43.6268H54.666V73.4747C52.7636 73.4747 50.8741 73.4963 48.9889 73.4488C48.7732 73.4445 48.5187 73.108 48.3547 72.8751C44.1616 66.9175 39.9772 60.9557 35.7927 54.9939C35.6503 54.7869 35.4734 54.597 35.1844 54.2519L35.1758 73.4315ZM14.1973 43.6225H20.4093V73.4057H14.1973V43.6225ZM83.5131 71.5981C83.5131 71.8483 83.1895 72.2409 82.9264 72.3444C79.5011 74.1865 73.617 74.7343 68.7983 73.4186C63.173 71.8829 59.4631 68.3153 58.3414 62.444C57.3536 57.3062 58.0049 52.3926 61.5725 48.2685C63.7209 45.7924 66.5163 44.4249 69.6482 43.7174C73.8931 42.7683 78.0042 43.2946 82.042 44.8304C82.6762 45.0719 82.8832 45.4171 82.8574 46.0987C82.8056 47.725 82.8358 49.3556 82.8358 51.12C82.495 50.9647 82.2922 50.8828 82.0895 50.7835C78.4183 48.9113 74.6092 48.3289 70.6361 49.5886C66.4731 50.9087 64.066 54.6229 64.3378 59.0619C64.4887 61.3828 64.946 63.5743 66.4861 65.3775C68.2375 67.4309 70.5843 68.2592 73.1511 68.4749C74.3633 68.5741 75.2045 68.5698 75.9422 68.4317C76.943 68.2376 77.5254 68.2333 77.5512 66.6242C77.521 65.2481 77.5167 63.7511 77.5167 62.2499H72.4522V56.4693H77.5254V56.452C78.9964 56.452 80.4114 56.4477 81.8048 56.4693H82.5899V56.4736C82.7495 56.4822 82.9091 56.4779 83.0687 56.4822C83.4613 56.4822 83.5087 56.8618 83.5087 57.0732C83.5346 61.5985 83.5346 67.0599 83.5044 71.5938L83.5131 71.5981Z" fill="black"/>
<path d="M6.22065 81.3818V33.0618L48.4494 10.4008V35.6372H54.6658V0L0 29.3345V87.5981H54.6658V81.3775L6.22065 81.3818Z" fill="#FFC32C"/>
</svg>
